<?xml version="1.0" encoding="utf-8"?>
<!-- Generator: Adobe Illustrator 27.0.0, SVG Export Plug-In . SVG Version: 6.00 Build 0)  -->
<svg version="1.1" id="Calque_1" xmlns="http://www.w3.org/2000/svg" xmlns:xlink="http://www.w3.org/1999/xlink" x="0px" y="0px"
	 viewBox="0 0 48 48" style="enable-background:new 0 0 48 48;" xml:space="preserve">
<style type="text/css">
	.st0{fill:#468966;}
	.st1{fill:#F7F5E9;}
</style>
<path class="st0" d="M37.34,47.97H10.7c-5.86,0-10.66-4.8-10.66-10.66V10.67c0-5.86,4.8-10.66,10.66-10.66h26.64
	C43.2,0.01,48,4.81,48,10.67v26.64C48,43.18,43.2,47.97,37.34,47.97z"/>
<path class="st1" d="M43.7,19.67l0-0.03l-0.01-0.03c-0.19-0.71-0.22-1.51-0.25-2.28c-0.04-1.03-0.07-1.92-0.47-2.49
	c-0.54-0.79-0.78-1.54-0.99-2.21c-0.31-0.99-0.59-1.84-1.71-2.13c-0.06-0.02-0.12-0.03-0.18-0.04c-0.03-0.01-0.05-0.01-0.08-0.02
	c-0.65-0.84-0.91-1.45-1.12-1.94c-0.3-0.69-0.51-1.2-1.57-1.45c-0.01,0-0.02,0-0.03-0.01c-0.39-0.09-0.91-0.06-1.52,0.05
	c-0.36-0.22-1.5-0.89-2.08-1.05c-0.04-0.01-0.07-0.02-0.11-0.03c-0.33-0.07-0.68-0.1-1.06-0.09c-0.35-0.21-1.13-0.47-2.01-0.66
	c-1.43-0.32-3.15-0.49-3.81-0.03c-0.32,0.22-0.75,0.41-1.22,0.61c-0.08,0.03-0.16,0.06-0.24,0.1c-0.11,0.05-0.23,0.09-0.35,0.14
	c-0.01,0.01-0.03,0.01-0.04,0.02c-0.16,0.07-0.33,0.14-0.49,0.22c-0.16,0.07-0.31,0.15-0.47,0.23c-0.36,0.19-0.71,0.41-1.02,0.68
	c-0.2,0.18-0.37,0.37-0.51,0.57c-0.18,0.27-0.3,0.57-0.35,0.86c-0.04,0.25-0.04,0.49,0.02,0.72c0.06,0.24,0.18,0.46,0.35,0.64
	c0.1,0.11,0.22,0.2,0.35,0.28c-0.09,0.06-0.18,0.12-0.26,0.17c-0.05,0.03-0.1,0.07-0.14,0.1l-0.05,0.03l-0.03,0.05
	c-0.44,0.69-0.49,1.48-0.13,2.12c0.16,0.28,0.39,0.51,0.67,0.68c0.19,0.12,0.4,0.2,0.64,0.27c0,0.07,0,0.14,0.01,0.2
	c-0.01,0.01-0.02,0.01-0.02,0.02L23.36,14l-0.03,0.08c-0.13,0.37-0.09,0.75,0.11,1.09c-0.53,0.65-0.89,1.28-1.13,1.84
	c-0.75-0.65-2.4-1.59-4.62-1.56l-0.2,0l-0.08,0.18c-0.26,0.6-0.63,3.49,0.41,5.83c0,0.01,0.01,0.02,0.01,0.02
	c-1.06,0.07-2.04,0.37-2.93,0.91c-1.07,0.65-1.71,1.47-2.05,2.04l0.06,0.03l-0.06,0.03c0.34,0.57,0.98,1.39,2.05,2.04
	c0.88,0.54,1.86,0.85,2.92,0.91c0,0,0,0.01,0,0.01c-0.68,1.53-0.76,3.29-0.66,4.5c-0.15,0.1-0.3,0.2-0.44,0.32
	c-0.21,0.18-0.4,0.37-0.55,0.58c-0.47-0.08-1.07-0.02-1.81,0.19c-0.03,0.01-0.05,0.01-0.08,0.02c-0.21-0.07-0.4-0.18-0.58-0.33
	c-0.73-0.57-1.26-1.65-1.8-2.77c-0.58-1.18-1.17-2.4-2.09-3.2c0.96-1.72,1.02-3.6,0.37-4.53c-0.41-0.58-1.06-0.77-1.8-0.51L8.3,21.8
	l-0.06,0.02l-0.06,0.12c-0.05,0.11-0.12,0.22-0.2,0.34c0,0-0.01,0.01-0.01,0.01c-0.09,0.12-0.2,0.25-0.31,0.37
	c-0.04,0.04-0.08,0.09-0.13,0.13c-0.38,0.38-0.84,0.73-1.17,0.99c-0.27,0.21-0.46,0.36-0.57,0.47c-0.41,0.47-0.88,4.43-0.74,5.62
	l0,0.03l0.01,0.03c0.22,0.7,0.29,1.5,0.36,2.26c0.09,1.03,0.17,1.91,0.59,2.46c0.58,0.76,0.86,1.5,1.11,2.15
	c0.36,0.97,0.68,1.81,1.81,2.04c0.06,0.01,0.12,0.02,0.19,0.04c0.03,0,0.05,0.01,0.08,0.01c0.69,0.81,0.98,1.4,1.22,1.88
	c0.33,0.68,0.57,1.17,1.65,1.37c0.01,0,0.02,0,0.03,0c0.4,0.07,0.92,0.01,1.51-0.13c0.37,0.2,1.54,0.82,2.13,0.94
	c0.04,0.01,0.07,0.01,0.11,0.02c0.33,0.06,0.69,0.06,1.06,0.03c0.36,0.19,1.15,0.41,2.04,0.56c1.45,0.25,3.17,0.33,3.8-0.16
	c0.31-0.24,0.73-0.45,1.19-0.67c0.08-0.04,0.15-0.07,0.23-0.11c0.11-0.05,0.22-0.11,0.34-0.16c0.01-0.01,0.03-0.01,0.04-0.02
	c0.16-0.08,0.32-0.16,0.48-0.24c0.15-0.08,0.3-0.16,0.45-0.25c0.35-0.21,0.69-0.45,0.98-0.73c0.19-0.19,0.35-0.39,0.48-0.6
	c0.17-0.28,0.27-0.58,0.31-0.88c0.03-0.25,0.01-0.49-0.06-0.72c-0.08-0.24-0.2-0.45-0.38-0.62c-0.11-0.1-0.23-0.19-0.36-0.27
	c0.09-0.06,0.17-0.12,0.25-0.18c0.05-0.04,0.09-0.07,0.14-0.11l0.05-0.04l0.03-0.05c0.41-0.71,0.42-1.51,0.02-2.12
	c-0.17-0.27-0.41-0.49-0.7-0.65c-0.2-0.11-0.41-0.18-0.65-0.23c0-0.04-0.01-0.08-0.01-0.13c0.95-0.97,1.5-1.92,1.81-2.71
	c0.73,0.64,2.35,1.58,4.54,1.58c0.04,0,0.07,0,0.11,0l0.2,0l0.08-0.18c0.26-0.6,0.63-3.49-0.41-5.83c-0.02-0.04-0.04-0.09-0.06-0.13
	c1.07-0.06,2.07-0.37,2.96-0.92c1.07-0.65,1.71-1.47,2.05-2.04l-0.06-0.03l0.06-0.03c-0.34-0.57-0.98-1.39-2.05-2.04
	c-0.87-0.53-1.83-0.83-2.86-0.91c0.76-1.79,0.72-3.87,0.55-5c0.1-0.09,0.19-0.19,0.27-0.29c0.46,0.1,1.07,0.07,1.82-0.1
	c0.03-0.01,0.05-0.01,0.08-0.02c0.21,0.08,0.39,0.2,0.57,0.35c0.7,0.61,1.17,1.71,1.66,2.86c0.51,1.21,1.05,2.46,1.92,3.3
	c-1.05,1.67-1.2,3.55-0.6,4.5c0.38,0.6,1.02,0.82,1.78,0.6l0.07-0.02l0.06-0.02l0.06-0.12c0.06-0.11,0.13-0.22,0.22-0.32
	c0,0,0.01-0.01,0.01-0.01c0.1-0.12,0.21-0.24,0.33-0.35c0.04-0.04,0.09-0.08,0.13-0.12c0.4-0.36,0.87-0.69,1.21-0.93
	c0.28-0.19,0.48-0.34,0.59-0.45C43.11,24.79,43.78,20.86,43.7,19.67z M22.66,9.23c-0.05-0.18-0.04-0.39,0.02-0.59
	c0.09-0.33,0.31-0.66,0.62-0.93c0.46-0.4,1.03-0.68,1.61-0.94c0.07-0.03,0.13-0.06,0.2-0.08c0.1-0.04,0.19-0.08,0.29-0.12
	c0.03-0.01,0.06-0.02,0.09-0.04c0.07-0.03,0.14-0.06,0.21-0.09c0.06-0.02,0.12-0.05,0.18-0.07c0.44-0.19,0.86-0.38,1.19-0.61
	c0.33-0.23,1.37-0.23,2.65-0.01c0.54,0.09,1.05,0.22,1.47,0.34c-0.84,0.16-1.67,0.4-2.34,0.59c-0.25,0.07-0.49,0.14-0.68,0.19
	C28.01,6.91,27.87,6.95,27.75,7c-0.16,0.06-0.3,0.11-0.43,0.17c-0.14,0.07-0.26,0.13-0.36,0.2c-0.3,0.2-0.49,0.41-0.69,0.63
	c-0.04,0.04-0.08,0.09-0.12,0.13c-0.02,0.02-0.04,0.05-0.07,0.07c-0.09,0.09-0.26,0.22-0.49,0.37c-0.41,0.27-0.98,0.61-1.5,0.92
	c-0.24,0.14-0.46,0.28-0.68,0.41c-0.17-0.05-0.31-0.12-0.43-0.21C22.81,9.57,22.71,9.42,22.66,9.23z M23.42,13.06
	c-0.28-0.1-0.51-0.27-0.66-0.48c-0.03-0.04-0.05-0.07-0.07-0.11c-0.19-0.33-0.21-0.74-0.06-1.13c0.04-0.1,0.08-0.19,0.14-0.29
	c0.12-0.08,0.26-0.17,0.41-0.27c0.35-0.22,0.79-0.48,1.22-0.73c0.46-0.27,0.91-0.54,1.29-0.78c0.23-0.14,0.42-0.28,0.58-0.39
	c0.11-0.08,0.2-0.15,0.26-0.22c0.07-0.07,0.14-0.15,0.2-0.22c0.27-0.29,0.49-0.54,1.01-0.75c0.13-0.05,0.28-0.11,0.45-0.16
	c0.04-0.01,0.09-0.03,0.14-0.04c0.1-0.03,0.21-0.06,0.33-0.09c0.01,0,0.01,0,0.02,0c0.11-0.03,0.23-0.07,0.35-0.1
	c0.08-0.02,0.16-0.05,0.24-0.07c1.29-0.38,3.1-0.86,4.26-0.56c0.31,0.08,0.87,0.38,1.35,0.64c-1.19,0.32-2.56,0.83-3.86,1.34
	c-0.01,0-0.02,0.01-0.03,0.01c-0.12,0.05-0.23,0.09-0.34,0.13c-0.15,0.06-0.28,0.11-0.38,0.14c-0.07,0.02-0.12,0.04-0.17,0.06
	c-0.2,0.07-0.41,0.18-0.63,0.33c-0.2,0.13-0.4,0.29-0.61,0.46c-0.13,0.11-0.26,0.22-0.4,0.34c-0.56,0.48-1.15,0.98-1.62,1.12
	c-0.12,0.04-0.23,0.09-0.36,0.15c-0.2,0.1-0.41,0.24-0.62,0.39c-0.53,0.39-1.08,0.91-1.58,1.39c-0.01,0.01-0.02,0.02-0.03,0.03
	C23.94,13.19,23.66,13.14,23.42,13.06z M23.9,14.38c0.24-0.2,0.53-0.47,0.82-0.76c0.36-0.34,0.76-0.72,1.16-1.05
	c0.22-0.18,0.43-0.34,0.63-0.47c0.19-0.12,0.37-0.21,0.53-0.27c0.59-0.19,1.22-0.73,1.83-1.25c0,0,0.01-0.01,0.01-0.01
	c0.21-0.18,0.42-0.36,0.62-0.51c0.29-0.23,0.57-0.41,0.79-0.49c0.14-0.05,0.37-0.13,0.65-0.24c0.08-0.03,0.17-0.07,0.27-0.1
	c0.03-0.01,0.07-0.03,0.1-0.04c0.11-0.04,0.23-0.09,0.35-0.14c1.65-0.64,4.39-1.65,5.48-1.41c0.01,0,0.01,0,0.02,0
	c0.75,0.18,0.86,0.43,1.14,1.09c0.17,0.4,0.4,0.92,0.84,1.58c-1.59-0.1-3.11,0.4-4.28,0.79c-0.16,0.05-0.31,0.1-0.46,0.15
	c-0.12,0.04-0.23,0.07-0.34,0.1c-0.13,0.04-0.25,0.07-0.37,0.1c-0.22,0.05-0.41,0.08-0.56,0.06L33,11.51l-0.1,0.1
	c-0.11,0.1-0.27,0.21-0.47,0.32c-0.2,0.11-0.43,0.23-0.67,0.34c-0.2,0.09-0.4,0.19-0.59,0.28c-0.84,0.39-1.33,0.62-1.51,0.87
	c-0.03,0.04-0.12,0.12-0.25,0.22c-0.19,0.15-0.45,0.33-0.67,0.49c-0.02,0.02-0.05,0.03-0.07,0.05c-0.75,0.53-1.24,0.89-1.51,1.18
	c-0.15,0.12-0.33,0.2-0.51,0.26c-0.09,0.03-0.18,0.06-0.28,0.07c-0.13,0.02-0.26,0.04-0.39,0.04c-0.08,0-0.16,0-0.24,0
	c-0.52-0.03-1.03-0.2-1.39-0.47c-0.03-0.02-0.06-0.05-0.09-0.07c-0.15-0.12-0.31-0.3-0.35-0.52C23.88,14.57,23.88,14.47,23.9,14.38z
	 M23.85,15.66c0.04,0.03,0.08,0.07,0.13,0.1c0.45,0.33,1.07,0.54,1.7,0.59c0.21,0.01,0.43,0.01,0.64-0.02
	c0.02,0,0.04-0.01,0.06-0.01c1.05,1.79,0.99,3.46,0.55,4.35c-0.61-0.33-1.31-0.52-2.05-0.52c-0.8,0-1.56,0.22-2.2,0.6
	C22.2,19.68,22.25,17.68,23.85,15.66z M25.69,33.61c-0.04-0.11-0.09-0.23-0.17-0.33c-0.13-0.19-0.31-0.37-0.55-0.52
	c-0.46-0.3-1.09-0.49-1.73-0.5c-0.03,0-0.06,0-0.09,0c-0.9-1.64-0.87-3.16-0.5-4.04c0.65,0.39,1.4,0.61,2.21,0.61
	c0.74,0,1.44-0.19,2.06-0.52C27.44,29.36,27.43,31.49,25.69,33.61z M23.44,20.78c-0.47,0.35-0.83,0.8-1.1,1.3
	c-0.51,0.32-0.94,0.75-1.27,1.25C21.42,22.16,22.31,21.21,23.44,20.78z M26.03,22.89c-0.31-0.03-0.64-0.05-0.98-0.06v-1.09
	c0.03,0,0.06,0,0.1,0c0.21,0.01,0.42,0.04,0.61,0.07C25.87,22.12,25.96,22.48,26.03,22.89z M25.76,27.16
	c-0.2,0.04-0.41,0.06-0.61,0.07c-0.03,0-0.06,0-0.1,0v-1.09c0.34-0.01,0.67-0.03,0.98-0.06C25.96,26.49,25.87,26.85,25.76,27.16z
	 M22.68,26.67c-0.15-0.27-0.28-0.55-0.37-0.86c0.3,0.09,0.64,0.17,1,0.22c0.06,0.36,0.13,0.7,0.22,1
	C23.24,26.94,22.95,26.82,22.68,26.67z M23.97,21.83c0.23-0.05,0.47-0.08,0.71-0.09v1.08c-0.34,0.01-0.67,0.03-0.98,0.06
	C23.77,22.49,23.86,22.13,23.97,21.83z M24.68,20.76v0.61c-0.18,0.01-0.36,0.03-0.54,0.05C24.3,21.08,24.49,20.85,24.68,20.76z
	 M24.68,23.19v1.11h-1.11c0.01-0.37,0.03-0.71,0.07-1.04C23.97,23.23,24.31,23.2,24.68,23.19z M24.68,25.78
	c-0.37-0.01-0.71-0.03-1.04-0.07c-0.04-0.32-0.06-0.67-0.07-1.03h1.11V25.78z M23.2,24.3h-1.09c0-0.03,0-0.06,0-0.1
	c0.01-0.21,0.04-0.42,0.07-0.61c0.31-0.11,0.67-0.2,1.08-0.27C23.23,23.63,23.21,23.96,23.2,24.3z M21.75,24.19
	c0,0.04,0,0.08,0,0.12h-0.61c0.09-0.19,0.32-0.37,0.65-0.54C21.77,23.9,21.76,24.04,21.75,24.19z M21.14,24.67h0.61
	c0.01,0.18,0.02,0.36,0.05,0.54C21.46,25.05,21.23,24.86,21.14,24.67z M22.12,24.67h1.08c0.01,0.34,0.03,0.67,0.06,0.98
	c-0.4-0.07-0.76-0.16-1.06-0.27C22.16,25.15,22.13,24.91,22.12,24.67z M23.7,26.09c0.31,0.03,0.64,0.05,0.98,0.06v1.08
	c-0.24-0.01-0.48-0.04-0.71-0.09C23.86,26.84,23.77,26.49,23.7,26.09z M24.68,27.6v0.61c-0.19-0.09-0.38-0.32-0.54-0.66
	C24.32,27.58,24.5,27.59,24.68,27.6z M25.05,28.21V27.6c0.04,0,0.08,0,0.12,0c0.14-0.01,0.28-0.02,0.42-0.04
	C25.42,27.89,25.24,28.12,25.05,28.21z M25.05,25.78v-1.11h1.11c-0.01,0.37-0.03,0.71-0.07,1.03
	C25.76,25.75,25.42,25.77,25.05,25.78z M26.52,24.67h1.08c-0.01,0.24-0.04,0.48-0.09,0.71c-0.3,0.11-0.66,0.2-1.06,0.27
	C26.5,25.34,26.52,25.01,26.52,24.67z M27.98,24.67h0.61c-0.09,0.19-0.32,0.38-0.66,0.54C27.96,25.03,27.97,24.85,27.98,24.67z
	 M27.98,24.3c0-0.04,0-0.08,0-0.12c-0.01-0.14-0.02-0.28-0.04-0.42c0.34,0.17,0.56,0.35,0.65,0.54H27.98z M27.61,24.21
	c0,0.03,0,0.06,0,0.1h-1.09c-0.01-0.34-0.03-0.67-0.06-0.98c0.41,0.07,0.77,0.16,1.07,0.27C27.57,23.8,27.6,24,27.61,24.21z
	 M26.16,24.3h-1.11v-1.11c0.37,0.01,0.71,0.03,1.04,0.07C26.12,23.59,26.15,23.94,26.16,24.3z M25.17,21.37c-0.04,0-0.08,0-0.12,0
	v-0.61c0.19,0.09,0.37,0.32,0.54,0.65C25.45,21.4,25.31,21.38,25.17,21.37z M23.69,21.51c-0.24,0.06-0.47,0.13-0.69,0.22
	c0.31-0.39,0.67-0.69,1.06-0.91C23.92,21.01,23.8,21.24,23.69,21.51z M22.61,22.34c0.29-0.17,0.6-0.31,0.93-0.41
	c-0.09,0.3-0.17,0.64-0.22,1c-0.38,0.06-0.72,0.14-1.03,0.23C22.37,22.87,22.48,22.6,22.61,22.34
	C22.61,22.35,22.61,22.34,22.61,22.34z M21.88,23.31c-0.21,0.08-0.39,0.18-0.54,0.28c0.2-0.31,0.43-0.59,0.7-0.83
	C21.97,22.95,21.92,23.13,21.88,23.31z M21.89,25.66c0.05,0.2,0.11,0.39,0.18,0.57c-0.28-0.25-0.53-0.53-0.73-0.86
	C21.49,25.48,21.68,25.58,21.89,25.66z M23.69,27.46c0.09,0.21,0.18,0.4,0.29,0.56c-0.32-0.21-0.61-0.45-0.86-0.74
	C23.3,27.35,23.49,27.41,23.69,27.46z M26.04,27.47c0.18-0.04,0.37-0.09,0.54-0.16c-0.24,0.27-0.51,0.5-0.82,0.69
	C25.86,27.86,25.95,27.68,26.04,27.47z M26.19,27.06c0.09-0.31,0.17-0.65,0.23-1.02c0.36-0.06,0.7-0.13,1-0.22
	c-0.1,0.33-0.23,0.64-0.4,0.92C26.75,26.87,26.47,26.98,26.19,27.06z M27.84,25.66c0.28-0.11,0.51-0.24,0.7-0.39
	c-0.23,0.43-0.55,0.79-0.92,1.08C27.71,26.13,27.78,25.9,27.84,25.66z M27.85,23.31c-0.05-0.23-0.12-0.45-0.2-0.66
	c0.37,0.3,0.66,0.65,0.87,1.03C28.34,23.55,28.11,23.42,27.85,23.31z M27.43,23.16c-0.31-0.09-0.65-0.17-1.02-0.23
	c-0.06-0.38-0.14-0.72-0.23-1.03c0.32,0.09,0.62,0.21,0.89,0.36C27.23,22.55,27.35,22.85,27.43,23.16z M26.04,21.5
	c-0.11-0.27-0.24-0.5-0.38-0.68c0.42,0.22,0.77,0.53,1.05,0.89C26.48,21.62,26.26,21.55,26.04,21.5z M22.41,26.94
	c0.33,0.54,0.77,0.99,1.29,1.34c-1.26-0.38-2.25-1.38-2.64-2.64C21.42,26.17,21.87,26.61,22.41,26.94z M26.02,28.28
	c0.51-0.33,0.93-0.76,1.25-1.28c0.15-0.08,0.3-0.17,0.45-0.28c0.34-0.24,0.62-0.52,0.85-0.83C28.14,27.04,27.2,27.93,26.02,28.28z
	 M27.35,22c-0.07-0.13-0.15-0.25-0.23-0.37c-0.24-0.34-0.52-0.62-0.83-0.86c1.05,0.4,1.89,1.24,2.29,2.29
	C28.24,22.62,27.82,22.27,27.35,22z M17.91,16.07c2.28,0.04,3.74,1.14,4.16,1.56c-0.04,0.13-0.08,0.25-0.11,0.37
	c-0.29,1.13-0.22,2.28,0.18,3.1c-0.74,0.6-1.28,1.43-1.5,2.38c-1.01-0.39-1.77-1.15-2.26-2.26C17.52,19.28,17.72,16.85,17.91,16.07z
	 M13.56,24.49c0.56-0.8,1.98-2.34,4.58-2.39c0.58,0.97,1.38,1.65,2.4,2.01c-0.01,0.13-0.02,0.25-0.02,0.38
	c0,0.12,0.01,0.25,0.02,0.37c-1.02,0.36-1.83,1.04-2.41,2.02C15.54,26.82,14.12,25.28,13.56,24.49z M18.38,27.74
	c0.5-1.12,1.26-1.88,2.26-2.26c0.22,0.95,0.76,1.79,1.5,2.39c-0.39,0.82-0.46,1.96-0.17,3.09c0.03,0.12,0.07,0.24,0.11,0.37
	c-0.13,0.13-0.36,0.33-0.68,0.53c-0.29-0.24-0.64-0.41-1.04-0.51c-0.2-0.05-0.41-0.07-0.63-0.08c-0.1,0-0.21,0-0.32,0
	c-0.53,0.02-1.11,0.17-1.65,0.4C17.7,30.57,17.8,29.04,18.38,27.74z M9.09,38.22c-0.76-0.16-0.98-0.65-1.35-1.65
	c-0.25-0.66-0.56-1.48-1.19-2.32c-0.31-0.41-0.39-1.25-0.47-2.14c-0.07-0.75-0.14-1.61-0.38-2.37c-0.06-0.55,0-1.64,0.16-2.86
	c0.17-1.31,0.36-2.09,0.44-2.24c0.07-0.07,0.26-0.22,0.47-0.38c0.28-0.22,0.62-0.48,0.94-0.77c0.04-0.04,0.09-0.08,0.13-0.12
	c0.06-0.05,0.11-0.11,0.17-0.16c0.1-0.1,0.21-0.21,0.3-0.32c0,0,0,0,0,0c0.16-0.18,0.29-0.37,0.39-0.56
	c0.42-0.12,0.74-0.01,0.96,0.31c0.53,0.76,0.37,2.1-0.15,3.31c-0.12,0.28-0.26,0.54-0.41,0.8c-0.07,0.11-0.14,0.22-0.21,0.32
	c-0.08,0.11-0.16,0.22-0.25,0.33c0,0,0,0,0,0c-0.09,0.1-0.16,0.21-0.23,0.31c-0.57,0.84-0.64,1.62-0.64,1.66l0.63,0.05
	c0-0.01,0.03-0.38,0.26-0.87c0.06-0.12,0.12-0.25,0.2-0.38c0.05-0.08,0.1-0.15,0.15-0.23c0.04,0.52,0.15,1.06,0.32,1.59
	c0.25,0.79,0.61,1.56,0.98,2.2c0.08,0.14,0.17,0.28,0.25,0.41c0.21,0.33,0.42,0.6,0.61,0.8c0.17,0.18,0.32,0.3,0.44,0.35l0.01-0.03
	l0.22-0.56c-0.17-0.07-0.55-0.54-0.94-1.2c-0.63-1.07-1.31-2.67-1.28-3.98c0.18,0.19,0.36,0.41,0.52,0.64
	c0.44,0.63,0.81,1.39,1.17,2.12c0.61,1.26,1.2,2.46,2.12,3.1c-0.41,0.15-0.86,0.34-1.34,0.56c-0.1,0.05-0.2,0.09-0.3,0.14
	c-0.09,0.04-0.18,0.09-0.28,0.14c-0.04,0.02-0.08,0.04-0.12,0.06c-0.07,0.04-0.14,0.07-0.22,0.11c-0.15,0.07-0.29,0.15-0.44,0.23
	l0.3,0.56c0.31-0.16,0.6-0.31,0.87-0.44c0.1-0.05,0.19-0.09,0.28-0.14c0.1-0.05,0.2-0.1,0.3-0.14c0.49-0.22,0.92-0.4,1.29-0.53
	c0.22-0.08,0.43-0.15,0.62-0.2c0.67-0.2,1.13-0.24,1.44-0.23c-0.01,0.01-0.01,0.03-0.02,0.04l0.6,0.2c0.07-0.2,0.18-0.39,0.33-0.57
	c0.14-0.17,0.3-0.32,0.49-0.47c0.04-0.03,0.08-0.06,0.12-0.09c0.14-0.1,0.29-0.19,0.45-0.27c0.49-0.25,1.05-0.41,1.62-0.44
	c0.09,0,0.19,0,0.3,0c0.2,0.01,0.41,0.04,0.63,0.1c0.15,0.05,0.3,0.11,0.44,0.19c0.18,0.11,0.34,0.25,0.47,0.44
	c0.05,0.07,0.09,0.13,0.13,0.21c-0.13,0.2-0.64,0.62-1.07,0.96c-0.13,0.1-0.25,0.2-0.35,0.28c-0.11,0.08-0.2,0.16-0.3,0.23
	c-0.43,0.34-0.69,0.56-0.79,0.72c-0.1,0.14-0.75,0.48-1.23,0.73c-0.09,0.04-0.17,0.09-0.26,0.13c-0.22,0.12-0.44,0.23-0.64,0.35
	c-0.33,0.19-0.62,0.38-0.83,0.56c-0.29,0.01-0.62,0.1-1,0.24c-0.11,0.04-0.23,0.08-0.35,0.12c-0.02,0.01-0.04,0.02-0.07,0.02
	c-0.08,0.03-0.17,0.06-0.25,0.1c-0.05,0.02-0.1,0.04-0.15,0.06c-0.07,0.03-0.15,0.06-0.23,0.09C12.55,37.96,10.81,38.58,9.09,38.22z
	 M12.23,41.53c-0.01,0-0.01,0-0.02,0c-0.76-0.14-0.88-0.38-1.2-1.03c-0.19-0.39-0.44-0.9-0.92-1.54c1.59,0.02,3.08-0.56,4.24-1
	c0.16-0.06,0.31-0.12,0.45-0.17c0.12-0.04,0.23-0.08,0.33-0.12c0.13-0.04,0.25-0.08,0.36-0.12c0.22-0.06,0.41-0.1,0.55-0.09
	l0.14,0.01l0.1-0.1c0.1-0.1,0.26-0.22,0.45-0.34c0.19-0.12,0.41-0.25,0.65-0.38c0.19-0.1,0.39-0.21,0.58-0.31
	c0.82-0.43,1.3-0.69,1.47-0.94c0.03-0.04,0.12-0.13,0.24-0.23c0.18-0.15,0.43-0.35,0.65-0.52c0.02-0.02,0.05-0.04,0.07-0.05
	c0.72-0.56,1.19-0.95,1.45-1.25c0.22-0.18,0.48-0.3,0.77-0.37c0.08-0.02,0.16-0.03,0.24-0.04c0.13-0.02,0.26-0.03,0.4-0.03
	c0.11,0,0.22,0.01,0.34,0.02c0.4,0.05,0.78,0.18,1.08,0.37c0.22,0.14,0.56,0.44,0.49,0.85c-0.08,0.08-0.17,0.16-0.26,0.25
	c-0.14,0.14-0.28,0.29-0.43,0.44c-0.03,0.03-0.06,0.07-0.1,0.1c-0.34,0.36-0.72,0.76-1.1,1.11c-0.21,0.19-0.41,0.36-0.6,0.5
	c-0.18,0.13-0.36,0.23-0.52,0.29c-0.58,0.22-1.18,0.79-1.77,1.34c0,0-0.01,0.01-0.01,0.01c-0.2,0.19-0.4,0.38-0.59,0.54
	c-0.28,0.24-0.54,0.44-0.76,0.52c-0.14,0.05-0.36,0.15-0.64,0.28c-0.08,0.04-0.17,0.08-0.26,0.12c-0.03,0.01-0.06,0.03-0.1,0.04
	c-0.11,0.05-0.22,0.1-0.35,0.16C16.01,40.56,13.32,41.71,12.23,41.53z M26.62,39.21c0.06,0.18,0.06,0.38,0.01,0.59
	c-0.07,0.33-0.27,0.67-0.57,0.96c-0.43,0.42-0.99,0.73-1.56,1.02c-0.06,0.03-0.13,0.06-0.19,0.09c-0.09,0.04-0.19,0.09-0.28,0.13
	c-0.03,0.01-0.06,0.03-0.09,0.04c-0.07,0.03-0.14,0.06-0.2,0.1c-0.06,0.03-0.12,0.06-0.17,0.08c-0.43,0.21-0.84,0.42-1.16,0.67
	c-0.32,0.25-1.36,0.3-2.64,0.14c-0.54-0.07-1.05-0.16-1.48-0.26c0.83-0.2,1.65-0.48,2.3-0.71c0.25-0.09,0.48-0.17,0.67-0.23
	c0.15-0.05,0.28-0.1,0.41-0.15c0.16-0.06,0.3-0.13,0.42-0.2c0.13-0.07,0.25-0.15,0.35-0.22c0.29-0.21,0.47-0.43,0.66-0.66
	c0.04-0.05,0.08-0.09,0.12-0.14c0.02-0.03,0.04-0.05,0.06-0.08c0.08-0.1,0.25-0.23,0.47-0.39c0.39-0.29,0.94-0.66,1.45-0.99
	c0.23-0.15,0.45-0.3,0.66-0.44c0.17,0.04,0.32,0.1,0.44,0.19C26.45,38.88,26.56,39.03,26.62,39.21z M25.66,35.43
	c0.29,0.09,0.52,0.24,0.69,0.44c0.03,0.03,0.05,0.07,0.08,0.11c0.21,0.32,0.24,0.73,0.12,1.13c-0.03,0.1-0.07,0.2-0.13,0.3
	c-0.11,0.09-0.25,0.19-0.4,0.29c-0.34,0.24-0.76,0.52-1.18,0.8c-0.45,0.3-0.89,0.59-1.25,0.84c-0.22,0.16-0.41,0.3-0.56,0.42
	c-0.1,0.09-0.19,0.16-0.25,0.23c-0.07,0.08-0.13,0.15-0.19,0.23c-0.25,0.31-0.46,0.56-0.97,0.8c-0.13,0.06-0.27,0.12-0.44,0.18
	c-0.04,0.02-0.09,0.03-0.13,0.04c-0.1,0.03-0.21,0.07-0.32,0.11c0,0-0.01,0-0.02,0.01c-0.11,0.04-0.23,0.08-0.35,0.12
	c-0.08,0.03-0.16,0.05-0.24,0.08c-1.27,0.44-3.06,1.02-4.23,0.77c-0.31-0.07-0.89-0.33-1.38-0.58c1.17-0.38,2.51-0.96,3.78-1.53
	c0.01,0,0.02-0.01,0.03-0.01c0.12-0.05,0.23-0.1,0.33-0.15c0.14-0.06,0.27-0.12,0.37-0.16c0.06-0.03,0.12-0.05,0.16-0.07
	c0.2-0.08,0.4-0.2,0.61-0.36c0.19-0.14,0.39-0.31,0.58-0.49c0.13-0.11,0.25-0.23,0.38-0.36c0.54-0.51,1.1-1.03,1.56-1.21
	c0.11-0.04,0.23-0.1,0.35-0.17c0.2-0.11,0.4-0.26,0.6-0.42c0.51-0.42,1.03-0.96,1.51-1.47c0.01-0.01,0.02-0.02,0.03-0.03
	C25.13,35.32,25.42,35.35,25.66,35.43z M31.82,32.88c-2.35-0.04-3.83-1.21-4.2-1.6c0.01-0.05,0.03-0.09,0.04-0.14
	c0.3-1.17,0.21-2.34-0.21-3.17c0.81-0.6,1.41-1.48,1.65-2.5c1.01,0.39,1.77,1.15,2.26,2.26C32.22,29.68,32.01,32.11,31.82,32.88z
	 M36.15,24.36c-0.56,0.8-2,2.36-4.63,2.39c-0.57-0.91-1.36-1.55-2.34-1.9c0.01-0.12,0.02-0.24,0.02-0.37c0-0.13-0.01-0.25-0.02-0.38
	c1.06-0.37,1.89-1.09,2.48-2.13C34.2,22.06,35.6,23.57,36.15,24.36z M31.36,21.22c-0.5,1.12-1.26,1.88-2.27,2.27
	c-0.24-1.01-0.83-1.89-1.65-2.49c0.43-0.83,0.52-2.01,0.22-3.18c-0.01-0.04-0.02-0.09-0.04-0.14c0.1-0.1,0.26-0.25,0.5-0.42
	c0.13,0.06,0.26,0.11,0.4,0.15c0.2,0.06,0.41,0.09,0.63,0.11c0.1,0.01,0.21,0.02,0.32,0.02c0.68,0,1.44-0.18,2.11-0.51
	c0.13-0.06,0.25-0.14,0.37-0.21C32.05,17.9,32.03,19.71,31.36,21.22z M42.77,22.59c-0.23,1.3-0.46,2.07-0.55,2.22
	c-0.07,0.07-0.28,0.21-0.49,0.36c-0.29,0.2-0.64,0.45-0.98,0.72c-0.05,0.04-0.09,0.07-0.14,0.11c-0.06,0.05-0.12,0.1-0.18,0.15
	c-0.11,0.1-0.22,0.2-0.31,0.31c0,0,0,0,0,0c-0.16,0.17-0.31,0.35-0.42,0.54c-0.43,0.09-0.74-0.02-0.94-0.36
	c-0.49-0.78-0.26-2.12,0.32-3.3c0.13-0.27,0.28-0.53,0.45-0.77c0.07-0.11,0.15-0.21,0.22-0.31c0.09-0.11,0.17-0.22,0.26-0.32
	c0,0,0,0,0,0c0.09-0.1,0.17-0.2,0.25-0.3c0.61-0.81,0.72-1.59,0.72-1.62l-0.63-0.08c0,0.01-0.05,0.38-0.3,0.86
	c-0.06,0.12-0.14,0.24-0.22,0.37c-0.05,0.07-0.1,0.15-0.17,0.22c-0.01-0.52-0.1-1.07-0.24-1.61c-0.21-0.8-0.53-1.59-0.87-2.25
	c-0.08-0.15-0.15-0.29-0.23-0.42c-0.2-0.34-0.39-0.62-0.57-0.83c-0.16-0.19-0.3-0.31-0.42-0.37l-0.01,0.03l-0.25,0.55
	c0.17,0.08,0.52,0.56,0.88,1.25c0.58,1.1,1.18,2.73,1.07,4.04c-0.17-0.2-0.33-0.42-0.48-0.66c-0.41-0.65-0.74-1.43-1.06-2.18
	c-0.55-1.29-1.07-2.52-1.96-3.2c0.42-0.13,0.88-0.3,1.36-0.5c0.1-0.04,0.2-0.08,0.31-0.13c0.09-0.04,0.19-0.08,0.29-0.12
	c0.04-0.02,0.08-0.04,0.13-0.06c0.07-0.03,0.15-0.06,0.22-0.1c0.15-0.07,0.3-0.14,0.46-0.21l-0.27-0.57
	c-0.32,0.15-0.61,0.28-0.89,0.4c-0.1,0.04-0.19,0.08-0.29,0.12c-0.11,0.04-0.21,0.08-0.31,0.12c-0.5,0.2-0.93,0.35-1.32,0.47
	c-0.23,0.07-0.44,0.13-0.63,0.17c-0.68,0.16-1.14,0.19-1.45,0.16c0.01-0.01,0.01-0.03,0.02-0.04l-0.59-0.23
	c-0.06,0.14-0.13,0.28-0.23,0.41c-0.04,0.05-0.08,0.1-0.12,0.15c-0.11,0.12-0.23,0.23-0.37,0.34c-0.08,0.07-0.17,0.13-0.27,0.19
	c-0.59,0.37-1.35,0.6-2.1,0.6c-0.09,0-0.19,0-0.29-0.02c-0.11-0.01-0.23-0.03-0.36-0.06c-0.09-0.02-0.18-0.04-0.27-0.08
	c-0.15-0.05-0.3-0.13-0.44-0.22c-0.23-0.16-0.42-0.37-0.56-0.68c0.14-0.19,0.67-0.59,1.12-0.91c0.13-0.1,0.26-0.19,0.37-0.26
	c0.11-0.08,0.21-0.15,0.31-0.22c0.45-0.32,0.72-0.52,0.83-0.68c0.11-0.13,0.78-0.44,1.27-0.67c0.09-0.04,0.18-0.08,0.26-0.12
	c0.23-0.11,0.45-0.21,0.66-0.32c0.34-0.17,0.64-0.34,0.86-0.52c0.29,0,0.62-0.07,1.01-0.18c0.11-0.03,0.23-0.07,0.35-0.11
	c0.02-0.01,0.04-0.01,0.07-0.02c0.08-0.03,0.17-0.05,0.26-0.08c0.05-0.02,0.1-0.03,0.16-0.05c0.08-0.02,0.15-0.05,0.23-0.08
	c1.35-0.44,3.12-0.97,4.82-0.52c0.75,0.2,0.94,0.69,1.27,1.71c0.21,0.67,0.48,1.51,1.08,2.37c0.29,0.42,0.32,1.26,0.36,2.16
	c0.03,0.76,0.06,1.61,0.26,2.39C43.1,20.28,42.99,21.37,42.77,22.59z"/>
</svg>
