<svg width="100" height="100" viewBox="0 0 100 100" fill="none" xmlns="http://www.w3.org/2000/svg">
<path d="M55.8008 35.2603C55.363 34.8857 55.0078 34.4333 54.7548 33.8933C54.7548 33.8933 54.75 33.8933 54.7451 33.8933C55.0613 34.4576 55.3094 34.9928 55.5089 35.4939C55.5965 35.416 55.6938 35.3333 55.7959 35.2555L55.8008 35.2603Z" fill="#FFFAF0"/>
<path d="M45.3462 63.2868C45.4289 63.4084 45.5067 63.5301 45.5748 63.6614C45.8959 63.5155 46.2316 63.4036 46.5819 63.3306C46.4554 63.0874 46.3435 62.8441 46.2462 62.6155C45.9981 62.8295 45.7013 63.0582 45.3511 63.2917L45.3462 63.2868Z" fill="#FFFAF0"/>
<path d="M51.0869 64.0993C50.2453 63.5495 49.102 63.2139 47.9393 63.1944C47.8858 63.1944 47.8274 63.1944 47.7739 63.1944C47.988 63.5836 48.2312 63.9825 48.5085 64.3766C49.2334 64.469 49.9291 64.7074 50.4642 65.0576C50.8631 65.3203 51.4858 65.8555 51.3545 66.5998C51.2037 66.736 51.048 66.8966 50.8826 67.062C50.9166 67.0912 50.9555 67.1252 50.9896 67.1544C51.5101 66.6582 51.9772 66.1522 52.3907 65.6512C52.3177 65.442 52.2204 65.2425 52.0891 65.0479C51.8507 64.6976 51.515 64.3717 51.0966 64.0944L51.0869 64.0993Z" fill="#FFFAF0"/>
<path d="M50.97 68.6771L50.6441 68.2977L50.6197 68.3268C50.4397 68.1712 50.2695 68.0204 50.0992 67.8647C50.0408 67.9279 49.9824 67.9863 49.9192 68.0496C49.2965 68.7014 48.6008 69.436 47.9149 70.0636C47.5403 70.409 47.1705 70.7204 46.8154 70.9733C46.4846 71.2117 46.1684 71.3966 45.8765 71.5036C44.8208 71.8977 43.7213 72.9339 42.6608 73.936C42.6559 73.9409 42.6462 73.9506 42.6413 73.9555C42.2813 74.296 41.9165 74.6366 41.5613 74.9431C41.0554 75.3858 40.5738 75.7458 40.1749 75.8966C39.917 75.9939 39.5181 76.1739 39.0122 76.3977C38.8614 76.4658 38.7057 76.5339 38.5354 76.6117C38.477 76.636 38.4186 76.6652 38.3603 76.6895C38.1608 76.7771 37.9516 76.8744 37.7278 76.9717C34.7943 78.2804 29.9003 80.3722 27.9105 80.0317C27.9008 80.0317 27.8911 80.0317 27.8765 80.0268C26.49 79.7641 26.2759 79.3263 25.7019 78.1539C25.3516 77.4387 24.8943 76.5193 24.0284 75.3614C26.9181 75.3906 29.6376 74.3447 31.7295 73.5371C32.0165 73.4252 32.2889 73.3231 32.5565 73.2209C32.7657 73.1431 32.97 73.0701 33.1646 73.002C33.3981 72.9193 33.617 72.8512 33.8214 72.7928C34.2203 72.6809 34.5608 72.6177 34.8235 72.6274L35.0814 72.642L35.2614 72.4571C35.4462 72.2674 35.7381 72.0582 36.0835 71.8344C36.4338 71.6106 36.8376 71.382 37.2608 71.1533C37.6062 70.9636 37.9662 70.7787 38.3068 70.5987C39.8051 69.8106 40.6662 69.3436 40.9727 68.8814C41.0262 68.8036 41.1868 68.6528 41.4008 68.4679C41.7316 68.1858 42.1841 67.8258 42.583 67.5144C42.6268 67.4804 42.6657 67.4512 42.7046 67.4171C44.0132 66.3906 44.8695 65.6852 45.3414 65.1355C45.7403 64.8047 46.2219 64.5809 46.7376 64.4544C46.8786 64.4204 47.0246 64.396 47.1705 64.3717C46.9468 64.0117 46.7473 63.6614 46.577 63.316C46.2316 63.3939 45.8911 63.5009 45.57 63.6469C45.5019 63.5155 45.4241 63.3939 45.3414 63.2723C45.0446 63.4717 44.7186 63.6712 44.3538 63.8609C44.4365 63.9777 44.5192 64.1041 44.5873 64.2452C44.3441 64.6101 43.4197 65.3739 42.6413 65.9966C42.4078 66.1814 42.1841 66.3566 41.9992 66.5074C41.8046 66.6631 41.6246 66.7993 41.4592 66.9355C40.6808 67.5533 40.2089 67.9571 40.0143 68.2441C39.8295 68.4971 38.6424 69.1247 37.7716 69.5771C37.6159 69.6598 37.4603 69.7425 37.3046 69.8204C36.9057 70.0296 36.5068 70.2436 36.137 70.4577C35.5387 70.8031 35.0035 71.1436 34.6241 71.4744C34.1035 71.4987 33.5003 71.6641 32.8046 71.9025C32.6051 71.9706 32.3911 72.0485 32.177 72.1312C32.1381 72.1458 32.0943 72.1604 32.0554 72.175C31.9046 72.2333 31.7489 72.2917 31.5932 72.3501C31.5008 72.3841 31.4084 72.4182 31.3159 72.4571C31.1797 72.5106 31.0435 72.5641 30.9073 72.6128C28.4992 73.5371 25.3273 74.656 22.1992 74.009C20.8127 73.722 20.4235 72.8366 19.7376 71.0171C19.2851 69.8204 18.7257 68.3269 17.563 66.8041C16.9987 66.0647 16.8624 64.5371 16.7165 62.922C16.5949 61.5501 16.4538 59.9982 16.0208 58.6117C15.9138 57.6193 16.0257 55.6344 16.3127 53.4063C16.6192 51.0177 16.9597 49.5971 17.1105 49.3296C17.237 49.1933 17.5922 48.9209 17.9668 48.629C18.4727 48.2398 19.0857 47.7631 19.6792 47.2328C19.757 47.1598 19.8397 47.0869 19.9176 47.0139C20.0197 46.9166 20.1219 46.8193 20.2241 46.7171C20.4138 46.5274 20.5987 46.3328 20.7689 46.1333C20.7689 46.1333 20.7738 46.1285 20.7787 46.1236C21.0608 45.7928 21.3089 45.4523 21.4938 45.1069C22.2576 44.8977 22.8316 45.0825 23.2403 45.6663C24.1987 47.0431 23.9068 49.4901 22.963 51.6793C22.7489 52.1804 22.4959 52.6669 22.2187 53.129C22.097 53.3285 21.9705 53.5231 21.8392 53.7128C21.6932 53.922 21.5424 54.1214 21.3868 54.3112C21.2311 54.5009 21.09 54.6906 20.9635 54.8804C19.9322 56.4128 19.8105 57.8333 19.8008 57.8966L20.9441 57.9841C20.9441 57.9841 21.0024 57.2885 21.416 56.3933C21.5181 56.1744 21.6397 55.9458 21.7857 55.7074C21.8732 55.5712 21.9608 55.4301 22.0678 55.2939C22.1311 56.2328 22.3451 57.2204 22.6468 58.1885C23.0992 59.6285 23.7511 61.0296 24.4273 62.1923C24.583 62.455 24.7338 62.7031 24.8895 62.9414C25.2738 63.535 25.6581 64.0312 26.0035 64.3912C26.31 64.7123 26.5824 64.936 26.8062 65.0236L26.8257 64.9701L27.2246 63.9533C26.9132 63.8269 26.2322 62.9804 25.517 61.769C24.3641 59.8182 23.1284 56.9187 23.1965 54.5301C23.5322 54.8804 23.8435 55.2696 24.1354 55.6879C24.9381 56.836 25.6046 58.2079 26.2614 59.5506C27.3754 61.8371 28.4408 64.0214 30.1192 65.1793C29.3651 65.4566 28.5527 65.802 27.6868 66.2058C27.5068 66.2885 27.3268 66.376 27.1419 66.4636C26.9765 66.5463 26.8062 66.6241 26.6359 66.7117C26.563 66.7506 26.4851 66.7847 26.4122 66.8236C26.2808 66.8868 26.1495 66.955 26.0181 67.0231C25.7505 67.1593 25.483 67.3004 25.2105 67.4414L25.7457 68.4533C26.3051 68.1566 26.8354 67.889 27.3316 67.6458C27.5068 67.5631 27.677 67.4804 27.8424 67.3977C28.0273 67.3101 28.2122 67.2225 28.3922 67.1447C29.2776 66.7409 30.0559 66.4198 30.7468 66.1766C31.1554 66.0306 31.5251 65.909 31.8705 65.8069C33.0819 65.4517 33.9235 65.3593 34.4927 65.3885C34.483 65.4177 34.4732 65.442 34.4635 65.4712L35.5532 65.836C35.6749 65.476 35.8792 65.1209 36.1468 64.7901C36.3949 64.4885 36.6965 64.2014 37.037 63.9387C36.9738 63.569 36.9154 63.136 36.8765 62.6544C36.5943 62.8296 36.3268 63.0241 36.0738 63.2333C35.6943 63.5544 35.3538 63.9047 35.0765 64.2939C34.2251 64.1479 33.1208 64.2647 31.7781 64.6344C31.7295 64.649 31.6857 64.6587 31.637 64.6733C31.2576 64.5371 30.9073 64.3377 30.5765 64.0798C29.2387 63.0339 28.29 61.0831 27.2976 59.0447C26.2516 56.8944 25.1668 54.676 23.503 53.2312C25.2543 50.1079 25.3614 46.6831 24.1841 44.995C23.4446 43.9393 22.2478 43.6036 20.9051 44.0755L20.7787 44.1193L20.6765 44.1533L20.5743 44.3771C20.4819 44.5766 20.3554 44.7809 20.2095 44.9852C20.2095 44.9901 20.1997 44.9998 20.1949 45.0047C20.0295 45.2285 19.8397 45.4523 19.6305 45.6712C19.5527 45.749 19.4749 45.8317 19.397 45.9096C18.7014 46.6004 17.8743 47.2425 17.276 47.6998C16.7846 48.0793 16.4295 48.3517 16.2446 48.5609C15.4954 49.4123 14.6441 56.6074 14.897 58.7723V58.8258L14.9214 58.8793C15.33 60.1539 15.4565 61.5987 15.583 62.995C15.7484 64.8582 15.8943 66.4685 16.663 67.4706C17.7187 68.8571 18.2246 70.1998 18.6722 71.3917C19.3338 73.1528 19.9078 74.6755 21.9705 75.1036C22.0824 75.1279 22.1943 75.1474 22.3062 75.1668C22.3549 75.1766 22.4035 75.1814 22.4522 75.1912C23.7073 76.6555 24.2424 77.7404 24.6754 78.6209C25.2835 79.8566 25.7214 80.7468 27.6673 81.1117C27.6819 81.1117 27.6965 81.1166 27.7159 81.1214C28.4359 81.2431 29.3797 81.1409 30.4695 80.8831C31.1408 81.2431 33.2668 82.3668 34.3468 82.5955C34.4149 82.6101 34.483 82.6247 34.5511 82.6344C35.1495 82.7366 35.8014 82.7463 36.4776 82.6928C37.1343 83.0382 38.5646 83.4371 40.1895 83.7144C42.8213 84.1668 45.9592 84.3079 47.1073 83.4177C47.6668 82.9798 48.4354 82.5955 49.2673 82.1966C49.4084 82.1285 49.5446 82.0652 49.6857 81.9971C49.89 81.8998 50.0943 81.8025 50.3035 81.7052C50.3278 81.6955 50.3522 81.6809 50.3813 81.6663C50.6684 81.5252 50.9603 81.3841 51.2522 81.2285C51.5295 81.0825 51.8068 80.9317 52.0743 80.7712C52.7165 80.3917 53.3246 79.9587 53.8549 79.4431C54.2051 79.1025 54.497 78.7377 54.7208 78.3533C55.0273 77.8377 55.217 77.2928 55.2851 76.7577C55.3386 76.3101 55.3046 75.8625 55.1732 75.4441C55.037 75.0063 54.7986 74.6317 54.4824 74.3204C54.2927 74.1355 54.0689 73.9701 53.8257 73.8387C53.9862 73.722 54.137 73.6101 54.2732 73.5079C54.3608 73.4398 54.4435 73.3766 54.5213 73.3133L54.604 73.2452L54.6576 73.1528C55.4019 71.8587 55.4165 70.4139 54.7013 69.2901C54.3851 68.7939 53.9522 68.4047 53.4219 68.1177C53.0668 67.9279 52.6678 67.782 52.2349 67.6944C52.23 67.6166 52.2251 67.5387 52.2154 67.4658C51.8359 67.855 51.4224 68.2441 50.97 68.6333V68.6771ZM54.0786 75.8382C54.1808 76.169 54.1857 76.5387 54.103 76.9133C53.9668 77.5166 53.6068 78.1393 53.057 78.6647C52.264 79.4285 51.257 79.9977 50.2111 80.5133C50.0943 80.5717 49.9776 80.6252 49.8608 80.6836C49.6905 80.7663 49.5203 80.8441 49.35 80.9268C49.2965 80.9512 49.243 80.9755 49.1895 81.0047C49.063 81.0631 48.9413 81.1214 48.8197 81.1798C48.7127 81.2285 48.6105 81.282 48.5084 81.3306C47.7203 81.715 46.9857 82.0993 46.397 82.5566C45.8181 83.0041 43.9305 83.1112 41.5905 82.8193C40.6078 82.6977 39.6738 82.5225 38.8905 82.3377C40.4035 81.9777 41.8922 81.4571 43.0841 81.0436C43.5316 80.8879 43.9549 80.742 44.3051 80.6252C44.5776 80.5377 44.8208 80.4501 45.0495 80.3577C45.3365 80.2409 45.5895 80.1241 45.8132 80.0025C46.0565 79.8712 46.2657 79.735 46.4554 79.5987C46.9808 79.2144 47.3116 78.8106 47.657 78.3923C47.7251 78.3095 47.7981 78.222 47.8711 78.1393C47.91 78.0955 47.9489 78.0468 47.9878 78.0031C48.1386 77.8279 48.4451 77.5798 48.8441 77.2831C49.5592 76.7577 50.5613 76.0912 51.4905 75.4733C51.904 75.2009 52.3078 74.9285 52.6922 74.6755C53.0035 74.7485 53.2711 74.8604 53.4851 75.016C53.777 75.2204 53.9813 75.4977 54.0884 75.8382H54.0786ZM52.3468 68.9544C52.8673 69.1198 53.2954 69.3923 53.5922 69.762C53.6408 69.8252 53.6895 69.8885 53.7332 69.9566C54.1078 70.5452 54.1759 71.275 53.9424 72.0047C53.884 72.1847 53.8111 72.3647 53.7138 72.5398C53.5143 72.7004 53.2662 72.8804 52.9889 73.075C52.3662 73.5128 51.6024 74.0236 50.8484 74.5198C50.0311 75.0598 49.2381 75.5852 48.5813 76.0522C48.1824 76.3344 47.837 76.5923 47.5646 76.8209C47.3797 76.9766 47.2241 77.1225 47.117 77.2441C46.9905 77.3852 46.8786 77.5263 46.7668 77.6625C46.3095 78.2171 45.9203 78.689 45.0008 79.1268C44.7722 79.2387 44.5046 79.3458 44.1981 79.4528C44.1203 79.482 44.0424 79.5063 43.9549 79.5355C43.7749 79.5939 43.5754 79.662 43.3662 79.7301C43.3565 79.7301 43.3468 79.735 43.337 79.7398C43.1327 79.8079 42.9235 79.8858 42.7046 79.9587C42.5635 80.0074 42.4176 80.056 42.2716 80.1095C39.9559 80.9122 36.7159 81.9631 34.5803 81.5155C34.0062 81.3939 32.9554 80.9123 32.0749 80.4695C34.2008 79.7836 36.6478 78.7231 38.9586 77.682C38.9781 77.6723 38.9927 77.6674 39.0122 77.6577C39.2262 77.5604 39.4257 77.4728 39.6105 77.3901C39.8732 77.2733 40.1019 77.1712 40.2916 77.0933C40.4084 77.0447 40.5105 77.0009 40.5884 76.9717C40.9484 76.8355 41.3181 76.6068 41.6976 76.3198C42.043 76.0571 42.3981 75.7506 42.7581 75.4198C42.9868 75.2106 43.2154 74.9917 43.4538 74.7728C44.4365 73.8485 45.4484 72.895 46.2851 72.5787C46.4943 72.5009 46.7035 72.3939 46.9176 72.2723C47.2727 72.0679 47.6376 71.8052 48.0073 71.5085C48.9316 70.7544 49.8803 69.7571 50.7559 68.8377C50.7754 68.8182 50.7949 68.7987 50.8143 68.7744C51.3835 68.7452 51.8992 68.8085 52.3468 68.9495V68.9544Z" fill="#FFFAF0"/>
<path d="M41.5468 62.5328C41.902 62.5474 42.296 62.6009 42.6949 62.7225C42.9674 62.8052 43.2398 62.9171 43.4928 63.0728C43.9014 62.8684 44.2663 62.6593 44.5776 62.4549C44.0522 62.0171 43.4149 61.7057 42.6803 61.5355C42.3203 61.4528 41.936 61.4041 41.5322 61.3895C41.3425 61.3847 41.1528 61.3798 40.9582 61.3895C39.9901 61.4333 38.9393 61.6911 37.9614 62.1241C37.9858 62.5717 38.0198 62.9755 38.0684 63.3306C38.9587 62.8782 39.9852 62.5814 41.0117 62.5328C41.1722 62.523 41.3571 62.523 41.5468 62.5328Z" fill="#FFFAF0"/>
<path d="M85.146 40.2858V40.2323L85.1266 40.1788C84.786 38.8847 84.7276 37.435 84.6741 36.0339C84.6011 34.1658 84.5379 32.5507 83.8228 31.5096C82.8352 30.0744 82.3974 28.7026 82.013 27.4961C81.439 25.7009 80.9476 24.1539 78.9044 23.6236C78.7925 23.5944 78.6806 23.5653 78.5687 23.5409C78.5201 23.5312 78.4714 23.5215 78.4228 23.5117C77.2455 21.9842 76.7638 20.875 76.3795 19.975C75.8347 18.7101 75.4455 17.8004 73.5141 17.3334C73.4995 17.3334 73.4849 17.3236 73.4703 17.3236C72.7601 17.1631 71.8114 17.2215 70.712 17.4258C70.0601 17.0317 67.9925 15.8009 66.9271 15.5188C66.859 15.4993 66.7957 15.4847 66.7276 15.4701C66.1341 15.3388 65.4871 15.295 64.806 15.3145C64.1687 14.935 62.7579 14.468 61.1525 14.108C58.5449 13.5242 55.4217 13.2177 54.2298 14.0545C53.646 14.4631 52.8628 14.8085 52.0114 15.1636C51.8703 15.222 51.7244 15.2804 51.5833 15.3436C51.379 15.4263 51.1649 15.5139 50.9509 15.6063C50.9266 15.6161 50.8974 15.6258 50.873 15.6404C50.5763 15.7669 50.2795 15.8934 49.9828 16.0345C49.7006 16.1658 49.4136 16.302 49.1363 16.4528C48.4795 16.8031 47.8422 17.202 47.2876 17.6885C46.9179 18.0096 46.6114 18.3599 46.3633 18.7345C46.0325 19.2355 45.8136 19.7658 45.7212 20.3009C45.6433 20.7485 45.6579 21.1912 45.7649 21.6193C45.8768 22.062 46.0958 22.4512 46.3974 22.7772C46.5774 22.9717 46.7914 23.1469 47.0298 23.2928C46.8644 23.3999 46.7087 23.502 46.5628 23.5993C46.4703 23.6626 46.3876 23.7209 46.3049 23.7793L46.2174 23.8426L46.159 23.935C45.3514 25.1901 45.2639 26.6301 45.9206 27.788C46.2076 28.2988 46.626 28.7123 47.1417 29.0236C47.4871 29.2328 47.8763 29.3934 48.3044 29.5053C48.3044 29.6269 48.3093 29.7534 48.3141 29.875C48.2995 29.8896 48.2849 29.8993 48.2703 29.9139L48.1439 30.0161L48.0903 30.1669C47.852 30.8382 47.9298 31.529 48.2898 32.1517C48.5476 31.8355 48.8249 31.5193 49.1266 31.1982C49.0925 31.0426 49.0876 30.8723 49.1266 30.6923C49.5693 30.3226 50.0849 29.8312 50.6249 29.3155C51.2817 28.6928 52.0114 27.9972 52.7266 27.4036C53.1157 27.0777 53.5049 26.7858 53.8698 26.5474C54.2152 26.3285 54.5363 26.1582 54.833 26.0658C55.9033 25.7253 57.0563 24.7474 58.1703 23.7988C58.1801 23.7939 58.1849 23.7842 58.1947 23.7793C58.5741 23.4582 58.9536 23.1323 59.3233 22.8453C59.8536 22.4317 60.3498 22.0961 60.7584 21.9647C61.0211 21.882 61.4298 21.7215 61.9455 21.522C62.0963 21.4636 62.2617 21.4004 62.432 21.3323C62.4903 21.308 62.5536 21.2836 62.612 21.2593C62.8163 21.1815 63.0303 21.0988 63.259 21.0063C66.2557 19.8485 71.252 18.0096 73.2174 18.4523C73.2271 18.4523 73.2368 18.4572 73.2514 18.462C74.6233 18.7928 74.813 19.2404 75.3287 20.442C75.6449 21.1717 76.0487 22.1155 76.8611 23.3172C73.9763 23.142 71.2082 24.0469 69.0774 24.7474C68.7855 24.8447 68.5082 24.9372 68.2357 25.0199C68.0217 25.088 67.8174 25.1512 67.6179 25.2096C67.3795 25.2777 67.1557 25.3361 66.9466 25.3847C66.5428 25.4772 66.1974 25.5258 65.9347 25.4966L65.6768 25.4723L65.4871 25.6474C65.2925 25.8274 64.9909 26.022 64.6357 26.2263C64.2757 26.4307 63.8574 26.6399 63.4244 26.849C63.0693 27.0193 62.7044 27.1896 62.3493 27.3501C60.8168 28.0604 59.9314 28.4836 59.6006 28.9312C59.5422 29.009 59.3768 29.1501 59.1482 29.3253C58.8076 29.588 58.3309 29.9236 57.9222 30.2155C57.8785 30.2447 57.8347 30.2788 57.7957 30.308C56.4384 31.2663 55.5433 31.928 55.0471 32.4534C54.7698 32.6626 54.4536 32.8134 54.1228 32.9253C54.3514 33.2658 54.5557 33.5966 54.7357 33.9226C54.7357 33.9226 54.7406 33.9226 54.7455 33.9226C54.9985 34.4577 55.3536 34.915 55.7914 35.2896C56.0687 35.0707 56.3995 34.8371 56.7741 34.6085C56.3655 34.3263 56.0055 33.9323 55.7574 33.3777C56.0201 33.0274 56.9784 32.3123 57.7909 31.7285C58.0341 31.5534 58.2676 31.388 58.4622 31.2517C58.6666 31.1058 58.8514 30.9793 59.0217 30.8528C59.8293 30.2739 60.3255 29.8993 60.5298 29.6172C60.7244 29.3739 61.9455 28.8096 62.8357 28.3961C62.9963 28.3231 63.1568 28.2501 63.3125 28.1771C63.7211 27.9874 64.1298 27.7928 64.5093 27.5982C65.1271 27.2869 65.6768 26.9707 66.0757 26.6593C66.5963 26.6593 67.2093 26.528 67.9147 26.3236C68.119 26.2653 68.333 26.1972 68.552 26.129C68.5909 26.1144 68.6347 26.1047 68.6736 26.0901C68.8244 26.0415 68.9849 25.9928 69.1455 25.9393C69.2379 25.9101 69.3303 25.8761 69.4276 25.8469C69.5639 25.8031 69.7049 25.7544 69.846 25.7107C72.2979 24.9128 75.5233 23.9544 78.6125 24.7572C79.9795 25.1123 80.3249 26.0172 80.9184 27.8707C81.3076 29.0917 81.7941 30.6096 82.8741 32.1858C83.3995 32.9544 83.4579 34.4869 83.5211 36.1069C83.5747 37.4836 83.633 39.0404 83.993 40.4463C84.0466 41.4436 83.8374 43.4188 83.4384 45.6323C83.0103 48.0015 82.5968 49.4025 82.4363 49.6652C82.3049 49.7917 81.9352 50.0496 81.546 50.322C81.0206 50.6869 80.3833 51.1296 79.7655 51.6307C79.6828 51.6988 79.6001 51.7669 79.5174 51.835C79.4103 51.9274 79.3033 52.0198 79.1963 52.1171C78.9968 52.2971 78.8022 52.482 78.6222 52.6717C78.6222 52.6717 78.6174 52.6766 78.6125 52.6815C78.3157 52.9977 78.0482 53.3236 77.8438 53.6593C77.0703 53.8296 76.506 53.6155 76.1266 53.0123C75.2363 51.5917 75.6547 49.1593 76.7103 47.0188C76.9536 46.5274 77.226 46.0555 77.5276 45.6128C77.659 45.4182 77.7952 45.2285 77.9363 45.0485C78.092 44.849 78.2525 44.6544 78.4179 44.4744C78.5833 44.2944 78.7341 44.1096 78.8703 43.9247C79.9795 42.4507 80.1741 41.035 80.1838 40.9717L79.0455 40.8258C79.0455 40.8258 78.9482 41.5166 78.4909 42.3874C78.379 42.6015 78.2428 42.8253 78.0822 43.0539C77.9898 43.1853 77.8925 43.3215 77.7806 43.4528C77.7611 42.5139 77.6006 41.5166 77.3476 40.529C76.973 39.0696 76.3893 37.6344 75.7714 36.4426C75.6303 36.1701 75.4893 35.9123 75.3482 35.6739C74.993 35.0658 74.6379 34.5501 74.312 34.1658C74.0249 33.8301 73.7622 33.5966 73.5433 33.4944L73.519 33.5431L73.0666 34.5355C73.373 34.6766 74.0103 35.5571 74.6622 36.8074C75.713 38.8166 76.8028 41.7744 76.613 44.1534C76.2968 43.7885 76.0049 43.3847 75.7325 42.9517C74.9882 41.7647 74.3898 40.3588 73.806 38.9869C72.8087 36.6469 71.8601 34.409 70.2401 33.1685C71.0039 32.9253 71.8357 32.6285 72.7212 32.2685C72.906 32.1955 73.0909 32.1177 73.2757 32.0399C73.446 31.9669 73.6211 31.8939 73.7963 31.8209C73.8741 31.7869 73.952 31.7528 74.0298 31.7188C74.1611 31.6604 74.2974 31.602 74.4336 31.5388C74.706 31.4172 74.9833 31.2907 75.2606 31.1593L74.7741 30.1182C74.2001 30.3858 73.6601 30.629 73.1493 30.848C72.9693 30.9258 72.799 30.9988 72.6238 31.0669C72.4341 31.1447 72.2444 31.2226 72.0644 31.2955C71.1595 31.6555 70.3666 31.9328 69.666 32.1469C69.2525 32.2734 68.873 32.3755 68.5228 32.4582C67.292 32.7501 66.4503 32.7988 65.8811 32.7453C65.8909 32.7209 65.9055 32.6917 65.9152 32.6674L64.8498 32.249C64.7476 32.5069 64.6066 32.755 64.4266 32.9885L64.4412 33.0177C64.5482 33.2658 64.6649 33.7231 64.7622 34.3361C64.9374 34.1658 65.1028 33.9907 65.2487 33.8058C66.0903 33.9955 67.1995 33.9372 68.5617 33.6307C68.6103 33.6209 68.6541 33.6112 68.7028 33.5966C69.0774 33.7523 69.4179 33.9712 69.7293 34.2436C71.0087 35.3528 71.8601 37.3523 72.7503 39.4393C73.6893 41.6431 74.6525 43.9101 76.2433 45.4377C74.3363 48.4685 74.0541 51.8836 75.1439 53.6301C75.8298 54.7247 77.0071 55.1188 78.3741 54.715L78.5055 54.6761L78.6125 54.6469L78.7244 54.428C78.8266 54.2334 78.9628 54.0339 79.1233 53.8393C79.1282 53.8344 79.133 53.8247 79.1379 53.8198C79.313 53.6058 79.5174 53.3917 79.7363 53.1826C79.8141 53.1047 79.8968 53.0317 79.9795 52.9588C80.7093 52.3069 81.5703 51.7085 82.1882 51.2755C82.699 50.9204 83.0638 50.6674 83.2584 50.468C84.0514 49.6555 85.2676 42.509 85.1217 40.3393L85.146 40.2858ZM46.879 21.3031C46.7914 20.9674 46.806 20.5977 46.913 20.228C47.0785 19.6345 47.4725 19.0312 48.0466 18.5301C48.8736 17.8101 49.9147 17.2896 50.9801 16.8274C51.1017 16.7739 51.2185 16.7253 51.3401 16.6766C51.5152 16.6036 51.6855 16.5307 51.8606 16.4577C51.9141 16.4334 51.9676 16.4139 52.026 16.3896C52.1525 16.3361 52.279 16.2826 52.4055 16.2339C52.5125 16.1901 52.6195 16.1463 52.7266 16.0977C53.5341 15.7572 54.2833 15.4069 54.8963 14.9836C55.4947 14.5653 57.3871 14.5555 59.7125 14.969C60.6855 15.1393 61.6147 15.3631 62.3833 15.5869C60.8558 15.869 59.3428 16.3117 58.1314 16.6669C57.6741 16.7982 57.246 16.9247 56.8909 17.022C56.6136 17.095 56.3655 17.1728 56.1368 17.2507C55.8449 17.3528 55.5871 17.4599 55.3584 17.5669C55.1103 17.6836 54.8914 17.8101 54.6968 17.9366C54.152 18.2966 53.8017 18.6809 53.4368 19.0799C53.3639 19.1577 53.2909 19.2404 53.213 19.3231C53.1741 19.3669 53.1303 19.4107 53.0914 19.4544C52.9309 19.6199 52.6098 19.8534 52.2012 20.1258C51.4617 20.6172 50.4255 21.2301 49.4671 21.7993C49.039 22.0523 48.6206 22.3004 48.2266 22.5388C47.9201 22.4512 47.6574 22.3247 47.453 22.1593C47.1757 21.9404 46.986 21.6534 46.8936 21.308L46.879 21.3031ZM62.072 20.2231C62.072 20.2231 62.0379 20.2377 62.0185 20.2426C61.7995 20.3301 61.5952 20.408 61.4055 20.4809C61.1379 20.5831 60.9044 20.6755 60.7098 20.7436C60.593 20.7874 60.4909 20.8215 60.4082 20.8507C60.0433 20.9674 59.659 21.1815 59.2649 21.4442C58.9049 21.6874 58.5352 21.9745 58.1606 22.2907C57.9222 22.4853 57.679 22.6945 57.4357 22.9036C56.4093 23.7745 55.3487 24.6793 54.4974 24.9469C54.2882 25.015 54.0693 25.1074 53.8503 25.2193C53.4855 25.4042 53.106 25.6474 52.7266 25.9296C51.7633 26.635 50.766 27.5788 49.8466 28.4544C49.8271 28.4739 49.8076 28.4934 49.7833 28.5128C49.2141 28.5128 48.6985 28.4253 48.2606 28.2599C47.7498 28.0701 47.3363 27.7734 47.0541 27.389C47.0055 27.3258 46.9617 27.2577 46.9228 27.1896C46.5774 26.5815 46.5482 25.8469 46.8158 25.1366C46.8839 24.9615 46.9666 24.7815 47.0687 24.6112C47.2779 24.4653 47.5357 24.295 47.8179 24.115C48.4601 23.7063 49.253 23.2393 50.0314 22.7772C50.873 22.2761 51.6952 21.7945 52.3763 21.3615C52.7898 21.0988 53.1449 20.8555 53.432 20.6415C53.6266 20.4955 53.7871 20.3593 53.899 20.2426C54.0303 20.1063 54.152 19.975 54.2687 19.8436C54.7552 19.3085 55.1639 18.8609 56.1028 18.4717C56.3412 18.3745 56.6087 18.2772 56.9249 18.1896C57.0028 18.1653 57.0855 18.1409 57.173 18.1215C57.3579 18.0728 57.5574 18.0145 57.7714 17.9561C57.7812 17.9561 57.7909 17.9512 57.8006 17.9463C58.0049 17.888 58.2239 17.8247 58.4428 17.7566C58.5839 17.7128 58.7298 17.6739 58.8806 17.6301C61.2352 16.9442 64.5239 16.0588 66.6303 16.6134C67.1947 16.7642 68.2211 17.2993 69.0822 17.7858C66.9271 18.3599 64.4266 19.2988 62.0671 20.2182L62.072 20.2231Z" fill="#FFFAF0"/>
<path d="M59.2551 35.2555C59.0946 35.2555 58.9097 35.2458 58.72 35.2263C58.5157 35.2069 58.2968 35.1728 58.073 35.1193C57.5768 35.382 57.1584 35.6496 56.813 35.8977C57.0416 36.0047 57.28 36.0971 57.533 36.1701C57.8881 36.2723 58.2724 36.3404 58.6714 36.3744C58.8611 36.389 59.0508 36.4036 59.2454 36.4036C60.4811 36.4085 61.8676 36.0777 63.0789 35.4696C63.3124 35.3528 63.5362 35.2215 63.7551 35.0853C63.7016 34.5647 63.6287 34.1317 63.5557 33.8253C63.4 33.942 63.2395 34.0588 63.0692 34.1658C61.9941 34.8372 60.6076 35.2653 59.2503 35.2604L59.2551 35.2555Z" fill="#FFFAF0"/>
<path d="M52.3715 34.2437C52.7558 34.268 53.145 34.2583 53.5293 34.2096C53.5634 34.2096 53.5975 34.1999 53.6315 34.195C53.4223 33.835 53.1791 33.475 52.9164 33.115C52.7704 33.115 52.6196 33.1199 52.4737 33.115C51.5348 33.0566 50.6104 32.7453 49.9488 32.2637C49.8953 32.2248 49.8369 32.181 49.7834 32.1323C49.5158 32.4242 49.2726 32.7112 49.0439 33.0031C49.1169 33.0664 49.1948 33.1296 49.2775 33.188C50.0899 33.7815 51.2137 34.1756 52.3764 34.2534L52.3715 34.2437Z" fill="#FFFAF0"/>
<path d="M55.5723 42.7036C55.5479 42.7474 55.5285 42.7912 55.5042 42.835L54.5312 42.2853C54.5652 42.2269 54.5944 42.1636 54.6285 42.1004C53.5144 41.4972 52.2447 41.1566 50.8923 41.1566C49.4279 41.1566 48.0609 41.5604 46.8836 42.2561C46.942 42.3923 47.0052 42.5188 47.0685 42.6355L46.0955 43.1853C46.042 43.0928 45.9982 43.0004 45.9496 42.9031C44.6069 43.9831 43.6242 45.4961 43.2155 47.228C43.3177 47.2669 43.4198 47.3058 43.5269 47.3399L43.1717 48.4004C43.1231 48.3858 43.0793 48.3663 43.0355 48.3517C43.0161 48.5804 43.0015 48.8139 43.0015 49.0474C43.0015 49.2809 43.0112 49.495 43.0307 49.7188C43.0744 49.7042 43.1182 49.6847 43.162 49.6701L43.5171 50.7307C43.4101 50.7647 43.308 50.8036 43.2058 50.8426C43.6096 52.5793 44.5923 54.0972 45.9301 55.182C45.9788 55.0799 46.0274 54.9826 46.0809 54.8901L47.0539 55.4399C46.9858 55.5615 46.9225 55.6977 46.8593 55.8388C48.0366 56.5393 49.4134 56.9431 50.8825 56.9431C52.235 56.9431 53.5096 56.6026 54.6236 55.9993C54.5896 55.9263 54.5506 55.8582 54.5166 55.7901L55.4896 55.2404C55.5188 55.289 55.5431 55.3426 55.5674 55.3912C57.0463 54.2966 58.1312 52.6912 58.5642 50.8426C58.462 50.8036 58.3598 50.7647 58.2528 50.7307L58.4377 50.1712C58.2285 50.6869 57.9561 51.1734 57.6252 51.6209C56.8323 53.6885 55.1198 55.3036 52.989 55.9555C52.3858 56.3545 51.7144 56.6804 50.9896 56.9236L50.8193 56.802L50.7804 56.9236C50.0555 56.6804 49.3842 56.3545 48.7809 55.9555C46.4896 55.255 44.6798 53.4453 43.9793 51.1588C43.5804 50.5507 43.2544 49.8842 43.0112 49.1593L43.1328 48.989L43.0112 48.9501C43.2544 48.2253 43.5804 47.5539 43.9793 46.9507C44.6312 44.8199 46.2415 43.1074 48.3042 42.3145C49.0144 41.7842 49.8512 41.3804 50.8144 41.1712L50.8339 41.2685L50.9555 41.1712C51.8701 41.3707 52.7117 41.755 53.4561 42.3096C55.3679 43.0393 56.8955 44.562 57.6301 46.4739C58.1604 47.1842 58.5642 48.0209 58.7733 48.9842L58.6761 49.0036L58.7733 49.1253C58.7344 49.315 58.6809 49.495 58.6274 49.6799C58.6712 49.6944 58.7101 49.709 58.749 49.7236C58.7685 49.4999 58.7782 49.2809 58.7782 49.0523C58.7782 48.8236 58.7636 48.5901 58.7442 48.3615C58.7004 48.3761 58.6615 48.3907 58.6177 48.4053L58.2625 47.3447C58.3647 47.3107 58.462 47.2718 58.5642 47.2328C58.1263 45.3891 57.0463 43.7934 55.5674 42.6988L55.5723 42.7036Z" fill="#FFFAF0"/>
<path d="M55.5625 46.6491C55.8301 46.7318 56.0879 46.8242 56.3214 46.9215C56.229 46.508 56.1025 46.1091 55.9566 45.7199C55.6355 45.462 55.2852 45.2237 54.9009 45.0145C55.183 45.535 55.402 46.0896 55.5625 46.6539V46.6491Z" fill="#FFFAF0"/>
<path d="M55.5285 51.4652C55.3485 52.0587 55.1053 52.623 54.7939 53.1338C55.1783 52.9344 55.548 52.7057 55.8885 52.443C56.0539 52.0392 56.195 51.6208 56.3021 51.1879C56.0637 51.2852 55.8058 51.3776 55.5285 51.4603V51.4652Z" fill="#FFFAF0"/>
<path d="M50.8923 46.0312C51.0042 46.0312 51.1161 46.0312 51.228 46.0312V44.056C51.0042 44.0463 50.7804 44.0512 50.5566 44.056V46.0263C50.6685 46.0263 50.7804 46.0263 50.8923 46.0263V46.0312Z" fill="#FFFAF0"/>
<path d="M55.2706 53.6398C54.8717 53.8587 54.4485 54.0484 54.0058 54.2041C53.5728 54.6906 53.0717 55.1138 52.5122 55.469C52.3128 55.7755 52.0939 56.0236 51.8604 56.2084C52.2495 56.1549 52.629 56.0722 52.9939 55.9603C53.9133 55.3522 54.682 54.569 55.2658 53.6398H55.2706Z" fill="#FFFAF0"/>
<path d="M50.8923 52.0734C50.7804 52.0734 50.6685 52.0734 50.5566 52.0734V54.0485C50.7804 54.0582 51.0042 54.0582 51.228 54.0485V52.0734C51.1161 52.0734 51.0042 52.0734 50.8923 52.0734Z" fill="#FFFAF0"/>
<path d="M50.5566 49.3879V51.3971C50.6685 51.3971 50.7804 51.3971 50.8923 51.3971C51.0042 51.3971 51.1161 51.3971 51.228 51.3971V49.3879H50.5566Z" fill="#FFFAF0"/>
<path d="M50.941 54.7296C50.8145 54.7296 50.688 54.7247 50.5566 54.715V55.8193C50.6685 55.8728 50.7804 55.902 50.8923 55.902C51.0042 55.902 51.1161 55.8728 51.228 55.8193V54.7198C51.1307 54.7198 51.0334 54.7296 50.941 54.7296Z" fill="#FFFAF0"/>
<path d="M55.8837 49.3879C55.8642 49.8257 55.8107 50.2587 55.728 50.6819C56.0005 50.5846 56.2437 50.4825 56.4675 50.3754C56.5161 50.0495 56.5502 49.7187 56.5599 49.3879H55.8837Z" fill="#FFFAF0"/>
<path d="M52.3274 42.3728C53.0863 42.7766 53.7188 43.3361 54.2344 43.9879C54.6382 44.1436 55.0274 44.3236 55.4069 44.5377C55.2755 44.3042 55.1344 44.0755 54.9788 43.8615C54.5409 43.2485 54.0301 42.7279 53.4658 42.3047C52.9598 42.1101 52.4247 41.9739 51.8701 41.8961C52.0307 42.0225 52.1863 42.1831 52.3323 42.3728H52.3274Z" fill="#FFFAF0"/>
<path d="M55.8838 48.5414C55.8838 48.5998 55.8838 48.6582 55.8838 48.7165H56.56C56.56 48.6436 56.56 48.5755 56.5503 48.5025C56.5357 48.2446 56.5065 47.9868 56.4724 47.729C56.2535 47.6219 56.0103 47.5198 55.7476 47.4225C55.8157 47.7971 55.8643 48.1668 55.8838 48.5365V48.5414Z" fill="#FFFAF0"/>
<path d="M51.228 48.7165V46.7025C51.1161 46.7025 51.0042 46.7025 50.8923 46.7025C50.7804 46.7025 50.6685 46.7025 50.5566 46.7025V48.7165H51.228Z" fill="#FFFAF0"/>
<path d="M51.228 43.3847V42.2803C51.1161 42.2268 51.0042 42.1976 50.8923 42.1976C50.7804 42.1976 50.6685 42.2268 50.5566 42.2803V43.3847C50.7804 43.3749 51.0042 43.3749 51.228 43.3847Z" fill="#FFFAF0"/>
<path d="M51.8654 41.8961C52.4199 41.969 52.9551 42.1101 53.461 42.3047C52.7167 41.7501 51.8751 41.3658 50.9605 41.1663L50.8389 41.2636L50.8972 41.5263C51.2378 41.5263 51.5637 41.6577 51.8654 41.8961Z" fill="#FFFAF0"/>
<path d="M50.9021 56.5733L50.8242 56.8019L50.9945 56.9235C51.7194 56.6803 52.3907 56.3544 52.9939 55.9554C52.6291 56.0673 52.2496 56.15 51.8604 56.2035C51.5588 56.4419 51.2377 56.5684 50.8972 56.5733H50.9021Z" fill="#FFFAF0"/>
<path d="M50.5568 55.8193C50.2114 55.6539 49.8709 55.2355 49.5693 54.6177C49.292 54.5739 49.0195 54.5204 48.752 54.4572C48.9076 54.8415 49.0828 55.182 49.2725 55.4739C49.6714 55.7269 50.0995 55.9458 50.5568 56.1258V55.8193Z" fill="#FFFAF0"/>
<path d="M48.7762 51.9615C48.5378 51.9371 48.3043 51.9031 48.0757 51.869C48.1778 52.5306 48.3141 53.1436 48.4795 53.6933C48.7324 53.7712 48.9951 53.8344 49.2627 53.8879C49.0681 53.3382 48.8978 52.6912 48.7762 51.9615Z" fill="#FFFAF0"/>
<path d="M53.0084 51.9615C52.8819 52.7009 52.7117 53.3577 52.5122 53.9123C52.7749 53.8636 53.0327 53.8004 53.2906 53.7274C53.4609 53.1728 53.6019 52.5452 53.709 51.869C53.4803 51.9031 53.2468 51.9323 53.0084 51.9615Z" fill="#FFFAF0"/>
<path d="M48.7762 46.1431C48.8978 45.4182 49.0681 44.7712 49.2627 44.2214C49 44.2749 48.7373 44.3382 48.4795 44.416C48.3141 44.9609 48.1778 45.5739 48.0757 46.2355C48.3043 46.2014 48.5378 46.1722 48.7762 46.1431Z" fill="#FFFAF0"/>
<path d="M53.2373 48.7165H53.9087C53.8989 48.0938 53.86 47.5003 53.7968 46.9311C53.573 46.8922 53.3443 46.8582 53.106 46.829C53.1789 47.4176 53.2227 48.0452 53.2373 48.7117V48.7165Z" fill="#FFFAF0"/>
<path d="M49.5639 43.4821C49.8655 42.8642 50.2109 42.4507 50.5514 42.2804V41.9253C50.172 42.0372 49.7925 42.1977 49.4228 42.4021C49.1698 42.7329 48.9412 43.1512 48.7417 43.6377C49.0093 43.5696 49.2817 43.5161 49.559 43.4772L49.5639 43.4821Z" fill="#FFFAF0"/>
<path d="M48.5424 49.3879H47.8711C47.8808 50.0057 47.9197 50.6041 47.983 51.1684C48.2068 51.2073 48.4354 51.2414 48.6738 51.2706C48.6008 50.6819 48.557 50.0544 48.5424 49.3879Z" fill="#FFFAF0"/>
<path d="M48.5424 48.7166C48.5522 48.0501 48.6008 47.4176 48.6738 46.8339C48.4354 46.8631 48.2068 46.8971 47.983 46.936C47.9197 47.5003 47.8857 48.0987 47.8711 48.7214H48.5424V48.7166Z" fill="#FFFAF0"/>
<path d="M53.2373 49.3879C53.2276 50.0544 53.1789 50.6819 53.106 51.2706C53.3443 51.2414 53.573 51.2073 53.7968 51.1684C53.86 50.6041 53.8941 50.0057 53.9087 49.3879H53.2373Z" fill="#FFFAF0"/>
<path d="M52.2107 54.6371C51.9091 55.2452 51.5686 55.6539 51.228 55.8241V56.1306C51.6853 55.9457 52.1134 55.722 52.5172 55.469C52.7021 55.1868 52.8724 54.8609 53.0232 54.4911C52.7556 54.5544 52.4832 54.603 52.2107 54.642V54.6371Z" fill="#FFFAF0"/>
<path d="M51.228 42.2804C51.5686 42.4458 51.9091 42.8545 52.2107 43.4675C52.4832 43.5064 52.7507 43.555 53.0232 43.6183C52.8188 43.1221 52.5853 42.7037 52.3275 42.3729C51.9869 42.1929 51.6172 42.0372 51.228 41.9253V42.2804Z" fill="#FFFAF0"/>
<path d="M53.0084 46.1431C53.2468 46.1674 53.4803 46.2014 53.709 46.2355C53.6068 45.5544 53.4609 44.9269 53.2906 44.3674C53.0425 44.2993 52.7798 44.2409 52.5122 44.1923C52.7117 44.7469 52.8819 45.4036 53.0084 46.1479V46.1431Z" fill="#FFFAF0"/>
<path d="M51.228 55.8193C51.1161 55.8728 51.0042 55.902 50.8923 55.902C50.7804 55.902 50.6685 55.8728 50.5566 55.8193V56.1258C50.6831 56.1744 50.8145 56.2231 50.9458 56.2717C51.2572 56.2717 51.5637 56.2474 51.8653 56.2036C52.0988 56.0188 52.3177 55.7707 52.5172 55.4642C52.1134 55.722 51.6853 55.9458 51.228 56.1258V55.8193Z" fill="#FFFAF0"/>
<path d="M50.5566 41.9301V42.2852C50.6685 42.2317 50.7804 42.2025 50.8923 42.2025C51.0042 42.2025 51.1161 42.2317 51.228 42.2852V41.9301C51.622 42.0468 51.9869 42.1976 52.3275 42.3776C52.1815 42.1879 52.0258 42.0322 51.8653 41.9009C51.5588 41.8571 51.2474 41.8376 50.9264 41.8328C50.8047 41.862 50.6783 41.8911 50.5566 41.9301Z" fill="#FFFAF0"/>
<path d="M50.9996 56.2911L50.9023 56.5782C51.2429 56.5782 51.564 56.4468 51.8656 56.2084C51.564 56.2474 51.2575 56.2717 50.9461 56.2765C50.9656 56.2814 50.9802 56.2911 50.9996 56.296V56.2911Z" fill="#FFFAF0"/>
<path d="M50.9262 41.8329C51.2424 41.8329 51.5586 41.8572 51.8651 41.901C51.5635 41.6626 51.2424 41.5312 50.897 41.5312L50.9602 41.828C50.9602 41.828 50.9359 41.8329 50.9262 41.8377V41.8329Z" fill="#FFFAF0"/>
<path d="M46.2023 46.6539C46.3531 46.1139 46.5477 45.6128 46.7861 45.1604C46.4115 45.3842 46.0661 45.642 45.745 45.9242C45.6283 46.2501 45.5358 46.5858 45.458 46.9166C45.6915 46.8193 45.9396 46.7318 46.2023 46.649V46.6539Z" fill="#FFFAF0"/>
<path d="M46.2998 44.6739C46.3485 44.6447 46.3971 44.6106 46.4457 44.5815C46.7814 44.382 47.1366 44.202 47.5014 44.0512C48.0609 43.3409 48.7274 42.7912 49.4279 42.402C49.5836 42.1977 49.7441 42.0323 49.9193 41.8961C49.3598 41.9739 48.8198 42.1101 48.309 42.3096C47.4625 42.942 46.796 43.7642 46.3047 44.6739H46.2998Z" fill="#FFFAF0"/>
<path d="M49.2722 55.4738C48.6836 55.0993 48.1582 54.6517 47.7106 54.1311C47.2679 53.9609 46.8447 53.7614 46.4457 53.523C46.4457 53.523 46.436 53.5182 46.4312 53.5133C47.0295 54.5009 47.8225 55.323 48.7857 55.9555C49.1506 56.0674 49.5301 56.1501 49.9193 56.2036C49.6906 56.0236 49.4717 55.7755 49.2722 55.4738Z" fill="#FFFAF0"/>
<path d="M46.9224 53.0221C46.6451 52.5356 46.4165 52.015 46.2511 51.4653C45.9786 51.3826 45.7208 51.2902 45.4775 51.1929C45.5651 51.548 45.6721 51.8934 45.8035 52.234C46.11 52.5015 46.4359 52.7399 46.7911 52.954C46.8348 52.9783 46.8786 53.0026 46.9224 53.0269V53.0221Z" fill="#FFFAF0"/>
<path d="M45.9008 49.3879H45.2246C45.2392 49.7187 45.2684 50.0495 45.317 50.3754C45.536 50.4825 45.7841 50.5846 46.0565 50.6819C45.9738 50.2587 45.9203 49.8257 45.9008 49.3879Z" fill="#FFFAF0"/>
<path d="M45.2246 48.7166H45.9008C45.9008 48.6582 45.9008 48.5998 45.9008 48.5414C45.9203 48.1571 45.964 47.7874 46.0273 47.4323C45.7646 47.5295 45.5213 47.6268 45.3073 47.7339C45.2732 47.9917 45.244 48.2495 45.2295 48.5025C45.2295 48.5755 45.2246 48.6436 45.2197 48.7166H45.2246Z" fill="#FFFAF0"/>
<path d="M50.5565 56.5344C50.3327 56.4809 50.1235 56.369 49.9192 56.2084C49.53 56.1549 49.1505 56.0722 48.7856 55.9603C49.3889 56.3592 50.0602 56.6852 50.7851 56.9284L50.824 56.8068L50.5516 56.6122V56.5392L50.5565 56.5344Z" fill="#FFFAF0"/>
<path d="M50.5567 41.5701V41.4971L50.8437 41.2685L50.8242 41.1712C49.8561 41.3804 49.0242 41.7842 48.314 42.3144C48.8248 42.1199 49.3648 41.9788 49.9242 41.9009C50.1286 41.7404 50.3377 41.6285 50.5615 41.575L50.5567 41.5701Z" fill="#FFFAF0"/>
<path d="M50.8923 56.5782C50.7804 56.5782 50.6685 56.5636 50.5566 56.5344V56.6074L50.8291 56.802L50.9069 56.5733C50.9069 56.5733 50.902 56.5733 50.8972 56.5733L50.8923 56.5782Z" fill="#FFFAF0"/>
<path d="M50.5566 41.5701C50.6685 41.5409 50.7804 41.5263 50.8923 41.5263C50.8923 41.5263 50.8923 41.5263 50.8972 41.5263L50.8388 41.2636L50.5518 41.4923V41.5652L50.5566 41.5701Z" fill="#FFFAF0"/>
<path d="M50.5568 56.1258C50.0995 55.9458 49.6714 55.7269 49.2725 55.4739C49.4719 55.7756 49.686 56.0237 49.9195 56.2037C50.1287 56.2329 50.3427 56.2523 50.5568 56.262V56.1258Z" fill="#FFFAF0"/>
<path d="M50.5569 41.8376C50.3428 41.8474 50.1288 41.8668 49.9196 41.896C49.7493 42.0322 49.5839 42.2025 49.4282 42.402C49.798 42.1976 50.1774 42.042 50.5569 41.9252V41.8376Z" fill="#FFFAF0"/>
<path d="M49.9194 56.2037C50.1238 56.3642 50.3329 56.4761 50.5567 56.5296V56.2621C50.3427 56.2523 50.1286 56.2329 49.9194 56.2037Z" fill="#FFFAF0"/>
<path d="M50.5567 41.5701C50.3329 41.6236 50.1238 41.7355 49.9194 41.8961C50.1286 41.8669 50.3427 41.8474 50.5567 41.8377V41.5701Z" fill="#FFFAF0"/>
<path d="M50.8923 41.8328C50.7804 41.8328 50.6685 41.8328 50.5566 41.8425V41.9301C50.6783 41.8911 50.8047 41.862 50.9264 41.8328C50.9166 41.8328 50.902 41.8328 50.8923 41.8328Z" fill="#FFFAF0"/>
<path d="M50.8923 56.2717C50.8923 56.2717 50.9264 56.2717 50.9458 56.2717C50.8145 56.228 50.6831 56.1793 50.5566 56.1258V56.262C50.6685 56.2669 50.7804 56.2717 50.8923 56.2717Z" fill="#FFFAF0"/>
<path d="M50.8923 41.8327C50.8923 41.8327 50.9166 41.8327 50.9264 41.8327C50.9361 41.8327 50.9507 41.8279 50.9604 41.823L50.8972 41.5262C50.8972 41.5262 50.8972 41.5262 50.8923 41.5262C50.7804 41.5262 50.6685 41.5408 50.5566 41.57V41.8376C50.6685 41.8327 50.7804 41.8279 50.8923 41.8279V41.8327Z" fill="#FFFAF0"/>
<path d="M50.9458 56.2717C50.9458 56.2717 50.9118 56.2717 50.8923 56.2717C50.7804 56.2717 50.6685 56.2717 50.5566 56.262V56.5295C50.6685 56.5587 50.7804 56.5733 50.8923 56.5733C50.8923 56.5733 50.8972 56.5733 50.902 56.5733L50.9993 56.2863C50.9993 56.2863 50.9653 56.2717 50.9458 56.2668V56.2717Z" fill="#FFFAF0"/>
<path d="M50.557 46.7025V46.0311C49.9343 46.0409 49.3408 46.0798 48.7765 46.143C48.7376 46.3668 48.7035 46.5955 48.6743 46.8338C49.263 46.7609 49.8905 46.7171 50.557 46.7025Z" fill="#FFFAF0"/>
<path d="M51.228 46.7025C51.8945 46.7122 52.5221 46.7609 53.1107 46.8338C53.0815 46.5955 53.0475 46.3668 53.0086 46.143C52.4442 46.0798 51.8459 46.0457 51.228 46.0311V46.7025Z" fill="#FFFAF0"/>
<path d="M51.228 51.4019V52.0733C51.8507 52.0635 52.4442 52.0246 53.0086 51.9614C53.0475 51.7376 53.0815 51.5089 53.1107 51.2706C52.5221 51.3435 51.8945 51.3873 51.228 51.4019Z" fill="#FFFAF0"/>
<path d="M53.8014 51.1686C53.7771 51.4069 53.743 51.6404 53.709 51.8691C54.3706 51.7669 54.9836 51.6307 55.5284 51.4653C55.6063 51.2123 55.6695 50.9496 55.723 50.6821C55.1733 50.8767 54.5263 51.0421 53.8014 51.1686Z" fill="#FFFAF0"/>
<path d="M50.557 51.4019C49.8905 51.3922 49.263 51.3435 48.6743 51.2706C48.7035 51.5089 48.7376 51.7376 48.7765 51.9614C49.3408 52.0246 49.9392 52.0587 50.557 52.0733V51.4019Z" fill="#FFFAF0"/>
<path d="M57.6595 49.3879C57.4941 49.7333 57.0806 50.0738 56.4628 50.3754C56.419 50.6527 56.3704 50.9252 56.3022 51.1927C56.8082 50.9884 57.2363 50.75 57.572 50.4873C57.752 50.1468 57.9028 49.7819 58.0195 49.3879H57.6644H57.6595Z" fill="#FFFAF0"/>
<path d="M45.3221 50.3754C44.7043 50.0738 44.2907 49.7333 44.1253 49.3879H43.8188C43.9988 49.8452 44.2275 50.2733 44.4805 50.6722C44.7675 50.8619 45.1032 51.0322 45.4875 51.1879C45.4194 50.9203 45.3659 50.6479 45.327 50.3706L45.3221 50.3754Z" fill="#FFFAF0"/>
<path d="M47.983 46.9361C48.0073 46.6978 48.0414 46.4642 48.0755 46.2356C47.3944 46.3378 46.7668 46.4837 46.2025 46.654C46.1344 46.9021 46.076 47.1648 46.0273 47.4324C46.5819 47.2329 47.2387 47.0626 47.983 46.9361Z" fill="#FFFAF0"/>
<path d="M56.477 47.7339C57.09 48.0355 57.4986 48.376 57.664 48.7166H58.0143C57.8975 48.3371 57.7418 47.9577 57.5375 47.5879C57.2116 47.3398 56.8029 47.116 56.3262 46.9214C56.3894 47.189 56.4381 47.4614 56.477 47.7339Z" fill="#FFFAF0"/>
<path d="M44.1205 48.7166C44.2859 48.376 44.6945 48.0355 45.3075 47.7339C45.3464 47.4614 45.3951 47.1939 45.4583 46.9214C45.0837 47.0771 44.7529 47.2474 44.4707 47.4323C44.2178 47.8312 43.9988 48.2593 43.8188 48.7166H44.1253H44.1205Z" fill="#FFFAF0"/>
<path d="M47.9831 51.1686C47.2534 51.0469 46.6064 50.8767 46.0615 50.6821C46.115 50.9448 46.1783 51.2075 46.2561 51.4653C46.8058 51.6307 47.414 51.7669 48.0756 51.8691C48.0415 51.6404 48.0123 51.4069 47.9831 51.1686Z" fill="#FFFAF0"/>
<path d="M53.8014 46.936C54.5409 47.0625 55.1928 47.2328 55.7474 47.4322C55.6987 47.1695 55.6355 46.9117 55.5625 46.6539C55.0079 46.4836 54.3852 46.3425 53.709 46.2404C53.743 46.469 53.7722 46.7025 53.8014 46.9409V46.936Z" fill="#FFFAF0"/>
<path d="M56.4771 47.7338C56.4382 47.4614 56.3895 47.189 56.3263 46.9214C56.0879 46.8241 55.835 46.7317 55.5674 46.649C55.6404 46.9068 55.7036 47.1695 55.7523 47.4274C56.0198 47.5247 56.2631 47.6268 56.4771 47.7338Z" fill="#FFFAF0"/>
<path d="M55.5283 51.4653C55.8008 51.3826 56.0586 51.2901 56.3018 51.1928C56.3699 50.9253 56.4235 50.6528 56.4624 50.3755C56.2435 50.4826 55.9953 50.5847 55.7229 50.682C55.6694 50.9447 55.6062 51.2074 55.5283 51.4653Z" fill="#FFFAF0"/>
<path d="M51.228 46.7025V46.0311C51.1161 46.0311 51.0042 46.0311 50.8923 46.0311C50.7804 46.0311 50.6685 46.0311 50.5566 46.0311V46.7025C50.6685 46.7025 50.7804 46.7025 50.8923 46.7025C51.0042 46.7025 51.1161 46.7025 51.228 46.7025Z" fill="#FFFAF0"/>
<path d="M50.5566 51.402V52.0734C50.6685 52.0734 50.7804 52.0734 50.8923 52.0734C51.0042 52.0734 51.1161 52.0734 51.228 52.0734V51.402C51.1161 51.402 51.0042 51.402 50.8923 51.402C50.7804 51.402 50.6685 51.402 50.5566 51.402Z" fill="#FFFAF0"/>
<path d="M47.9829 51.1685C48.0072 51.4068 48.0413 51.6403 48.0753 51.869C48.304 51.903 48.5375 51.9322 48.7759 51.9614C48.737 51.7376 48.7029 51.509 48.6737 51.2706C48.4353 51.2414 48.2067 51.2074 47.9829 51.1685Z" fill="#FFFAF0"/>
<path d="M53.8018 46.936C53.7774 46.6977 53.7434 46.4641 53.7093 46.2355C53.4807 46.2014 53.2472 46.1723 53.0088 46.1431C53.0477 46.3669 53.0818 46.5955 53.111 46.8339C53.3493 46.8631 53.578 46.8971 53.8018 46.936Z" fill="#FFFAF0"/>
<path d="M48.7759 46.1431C48.5375 46.1674 48.304 46.2014 48.0753 46.2355C48.0413 46.4641 48.0121 46.6977 47.9829 46.936C48.2067 46.8971 48.4353 46.8631 48.6737 46.8339C48.7029 46.5955 48.737 46.3669 48.7759 46.1431Z" fill="#FFFAF0"/>
<path d="M53.0088 51.9614C53.2472 51.9371 53.4807 51.903 53.7093 51.869C53.7434 51.6403 53.7726 51.4068 53.8018 51.1685C53.578 51.2074 53.3493 51.2414 53.111 51.2706C53.0818 51.509 53.0477 51.7376 53.0088 51.9614Z" fill="#FFFAF0"/>
<path d="M46.2023 46.6539C45.9396 46.7366 45.6866 46.8242 45.4579 46.9215C45.3947 47.1939 45.346 47.4615 45.3071 47.7339C45.5212 47.6269 45.7644 47.5247 46.0271 47.4323C46.0758 47.1647 46.1342 46.9069 46.2023 46.6539Z" fill="#FFFAF0"/>
<path d="M45.3218 50.3755C45.3656 50.6528 45.4142 50.9253 45.4823 51.1928C45.7207 51.2901 45.9785 51.3826 46.2558 51.4653C46.178 51.2123 46.1147 50.9496 46.0612 50.682C45.7888 50.5847 45.5456 50.4826 45.3218 50.3755Z" fill="#FFFAF0"/>
<path d="M47.8709 49.0522C47.8709 48.9403 47.8709 48.8284 47.8709 48.7166H45.8958C45.886 48.9403 45.8909 49.1641 45.8958 49.3879H47.866C47.866 49.276 47.866 49.1641 47.866 49.0522H47.8709Z" fill="#FFFAF0"/>
<path d="M50.5565 48.7166H48.5425C48.5425 48.8284 48.5425 48.9403 48.5425 49.0522C48.5425 49.1641 48.5425 49.276 48.5425 49.3879H50.5565V48.7166Z" fill="#FFFAF0"/>
<path d="M55.8887 48.7166H53.9136C53.9136 48.8284 53.9136 48.9403 53.9136 49.0522C53.9136 49.1641 53.9136 49.276 53.9136 49.3879H55.8838C55.8936 49.1641 55.8936 48.9403 55.8838 48.7166H55.8887Z" fill="#FFFAF0"/>
<path d="M53.2372 48.7166H51.2231V49.3879H53.2372C53.2372 49.276 53.2372 49.1641 53.2372 49.0522C53.2372 48.9403 53.2372 48.8284 53.2372 48.7166Z" fill="#FFFAF0"/>
<path d="M57.5716 50.4874C57.1532 51.2707 56.5694 51.9226 55.8932 52.448C55.7424 52.8128 55.5673 53.168 55.363 53.4988C55.3338 53.5474 55.3046 53.5912 55.2754 53.6399C55.5576 53.4842 55.83 53.3236 56.083 53.1388C56.6959 52.7009 57.2165 52.195 57.6397 51.6258C57.8343 51.115 57.9705 50.5799 58.0484 50.0253C57.9219 50.1858 57.7613 50.3415 57.5716 50.4874Z" fill="#FFFAF0"/>
<path d="M46.4315 53.5133C46.4315 53.5133 46.4217 53.5036 46.4217 53.4938C46.1834 53.0949 45.979 52.6717 45.8088 52.229C45.2931 51.7814 44.8504 51.256 44.4758 50.6722C44.1693 50.4728 43.9212 50.2538 43.7363 50.0203C43.7898 50.4095 43.8725 50.789 43.9844 51.1587C44.6217 52.1171 45.4439 52.9149 46.4315 53.5133Z" fill="#FFFAF0"/>
<path d="M54.7937 53.1339C54.3121 53.382 53.8062 53.5766 53.2905 53.7225C53.2078 53.9901 53.1154 54.2479 53.0181 54.4814C53.3537 54.4036 53.6846 54.3111 54.0056 54.1993C54.2975 53.8733 54.5602 53.523 54.784 53.1484C54.784 53.1436 54.7889 53.1387 54.7937 53.1339Z" fill="#FFFAF0"/>
<path d="M48.4791 53.6933C47.9294 53.5279 47.4088 53.2993 46.9224 53.022C46.9467 53.0658 46.9661 53.1095 46.9953 53.1533C47.2045 53.5036 47.4478 53.8295 47.7105 54.136C48.0461 54.2674 48.3964 54.3744 48.7516 54.462C48.6543 54.2236 48.5618 53.9658 48.4791 53.6933Z" fill="#FFFAF0"/>
<path d="M51.4032 54.0436C51.3448 54.0436 51.2864 54.0436 51.228 54.0436V54.715C51.2961 54.715 51.3691 54.715 51.4372 54.7101C51.6951 54.6955 51.9529 54.6663 52.2059 54.6323C52.3129 54.4134 52.4151 54.1701 52.5124 53.9074C52.1378 53.9755 51.768 54.0242 51.3983 54.0436H51.4032Z" fill="#FFFAF0"/>
<path d="M50.5568 54.0436C50.1189 54.0242 49.6859 53.9706 49.2627 53.8879C49.36 54.1555 49.4622 54.4036 49.5692 54.6225C49.8951 54.6712 50.2259 54.7004 50.5568 54.715V54.0436Z" fill="#FFFAF0"/>
<path d="M45.2246 48.7166H44.1252C44.0717 48.8284 44.0425 48.9403 44.0425 49.0522C44.0425 49.1641 44.0717 49.276 44.1252 49.3879H45.2295C45.2198 49.1641 45.2198 48.9403 45.2295 48.7166H45.2246Z" fill="#FFFAF0"/>
<path d="M56.5552 49.3879H57.6595C57.713 49.276 57.7422 49.1641 57.7422 49.0522C57.7422 48.9403 57.713 48.8284 57.6595 48.7166H56.56C56.5649 48.9403 56.5649 49.1641 56.56 49.3879H56.5552Z" fill="#FFFAF0"/>
<path d="M58.6277 49.6799C58.6861 49.4999 58.7347 49.315 58.7736 49.1253L58.6763 49.0037L58.4136 49.062C58.4136 49.4026 58.2823 49.7237 58.0439 50.0253C57.9709 50.5799 57.8298 51.1199 57.6353 51.6258C57.9709 51.1783 58.2434 50.6918 58.4477 50.1761L58.618 49.675C58.618 49.675 58.6228 49.675 58.6277 49.675V49.6799Z" fill="#FFFAF0"/>
<path d="M43.3664 49.062L43.1377 48.9841L43.0161 49.1544C43.2594 49.8793 43.5853 50.5506 43.9842 51.1539C43.8723 50.789 43.7896 50.4047 43.7361 50.0155C43.4977 49.7139 43.3712 49.3928 43.3664 49.0571V49.062Z" fill="#FFFAF0"/>
<path d="M55.8838 49.3879H56.56C56.5697 49.1641 56.5697 48.9403 56.56 48.7166H55.8838C55.8935 48.9403 55.8887 49.1641 55.8838 49.3879Z" fill="#FFFAF0"/>
<path d="M50.5566 54.0436V54.7149C50.6831 54.7198 50.8096 54.7295 50.941 54.7295C51.0383 54.7295 51.1307 54.7295 51.228 54.7198V54.0484C51.0042 54.0582 50.7804 54.0533 50.5566 54.0484V54.0436Z" fill="#FFFAF0"/>
<path d="M54.7891 53.1533C54.5605 53.5328 54.2978 53.8831 54.0107 54.2042C54.4534 54.0485 54.8767 53.8587 55.2756 53.6398C55.3048 53.5912 55.3388 53.5474 55.3632 53.4987C55.5626 53.1631 55.7378 52.8128 55.8934 52.4479C55.5529 52.7106 55.1832 52.9393 54.7989 53.1387C54.7989 53.1436 54.794 53.1485 54.7891 53.1533Z" fill="#FFFAF0"/>
<path d="M51.228 48.7166H50.5566V49.3879H51.228V48.7166Z" fill="#FFFAF0"/>
<path d="M48.5424 48.7166H47.8711C47.8711 48.8284 47.8711 48.9403 47.8711 49.0522C47.8711 49.1641 47.8711 49.276 47.8711 49.3879H48.5424C48.5424 49.276 48.5424 49.1641 48.5424 49.0522C48.5424 48.9403 48.5424 48.8284 48.5424 48.7166Z" fill="#FFFAF0"/>
<path d="M53.2417 49.0522C53.2417 49.1641 53.2417 49.276 53.2417 49.3879H53.9131C53.9131 49.276 53.9131 49.1641 53.9131 49.0522C53.9131 48.9403 53.9131 48.8284 53.9131 48.7166H53.2417C53.2417 48.8284 53.2417 48.9403 53.2417 49.0522Z" fill="#FFFAF0"/>
<path d="M48.4795 53.6933C48.5622 53.9657 48.6546 54.2236 48.7519 54.4619C49.0195 54.5301 49.2919 54.5836 49.5692 54.6225C49.4622 54.4036 49.36 54.1555 49.2627 53.8879C49 53.8344 48.7373 53.7711 48.4795 53.6933Z" fill="#FFFAF0"/>
<path d="M52.2104 54.6371C52.4829 54.5982 52.7553 54.5496 53.0229 54.4863C53.1202 54.248 53.2126 53.995 53.2953 53.7274C53.0375 53.8004 52.7748 53.8636 52.5169 53.9123C52.4196 54.1799 52.3175 54.4231 52.2104 54.6371Z" fill="#FFFAF0"/>
<path d="M45.8962 48.7166H45.22C45.2151 48.9403 45.2151 49.1641 45.22 49.3879H45.8962C45.8864 49.1641 45.8864 48.9403 45.8962 48.7166Z" fill="#FFFAF0"/>
<path d="M46.9226 53.022C46.8788 52.9977 46.8351 52.9734 46.7913 52.9491C46.441 52.7399 46.1102 52.4966 45.8037 52.2291C45.974 52.6718 46.1783 53.095 46.4167 53.4939C46.4167 53.4988 46.4264 53.5037 46.4264 53.5134C46.4264 53.5134 46.4361 53.5183 46.441 53.5231C46.8399 53.7615 47.2632 53.961 47.7059 54.1312C47.4432 53.8247 47.1999 53.4988 46.9907 53.1485C46.9664 53.1047 46.9421 53.061 46.9178 53.0172L46.9226 53.022Z" fill="#FFFAF0"/>
<path d="M58.0145 48.7166H57.6642C57.7177 48.8284 57.7469 48.9403 57.7469 49.0522C57.7469 49.1641 57.7177 49.276 57.6642 49.3879H58.0193C57.9075 49.782 57.7566 50.1468 57.5718 50.4874C57.7615 50.3414 57.9172 50.1857 58.0485 50.0252C58.0923 49.7187 58.1118 49.4074 58.1166 49.0911C58.0875 48.9695 58.0583 48.843 58.0193 48.7214L58.0145 48.7166Z" fill="#FFFAF0"/>
<path d="M44.1204 49.3879C44.0669 49.276 44.0377 49.1641 44.0377 49.0522C44.0377 48.9403 44.0669 48.8284 44.1204 48.7166H43.8139C43.7653 48.843 43.7166 48.9744 43.668 49.1057C43.668 49.4171 43.6923 49.7236 43.7361 50.0252C43.9209 50.2587 44.1691 50.4728 44.4755 50.6771C44.2226 50.2782 43.9988 49.8501 43.8139 49.3928H44.1204V49.3879Z" fill="#FFFAF0"/>
<path d="M43.6532 49.1594L43.3662 49.0621C43.3662 49.4026 43.4976 49.7237 43.7359 50.0205C43.697 49.7188 43.6727 49.4123 43.6678 49.101C43.663 49.1205 43.6532 49.135 43.6484 49.1545L43.6532 49.1594Z" fill="#FFFAF0"/>
<path d="M58.1121 49.0863C58.1121 49.4025 58.0877 49.7138 58.0439 50.0203C58.2823 49.7187 58.4137 49.3976 58.4137 49.0571L58.1169 49.1203C58.1169 49.1203 58.1121 49.096 58.1072 49.0863H58.1121Z" fill="#FFFAF0"/>
<path d="M53.291 44.3625C53.8797 44.5231 54.4197 44.7469 54.9061 45.0096C54.7115 44.6496 54.4878 44.309 54.2348 43.9831C53.8359 43.8323 53.4321 43.7106 53.0234 43.6133C53.1207 43.8469 53.2083 44.095 53.291 44.3577V44.3625Z" fill="#FFFAF0"/>
<path d="M50.5568 44.0609V43.3847C50.2259 43.3993 49.8951 43.4285 49.5692 43.4771C49.4622 43.6961 49.36 43.9442 49.2627 44.2166C49.6859 44.129 50.1189 44.0804 50.5568 44.0609Z" fill="#FFFAF0"/>
<path d="M44.4709 47.4323C44.8309 46.8679 45.2542 46.362 45.7455 45.929C45.8963 45.5009 46.0812 45.0777 46.3001 44.6739C45.3709 45.2625 44.5877 46.0312 43.9844 46.9458C43.8725 47.3106 43.7898 47.6901 43.7363 48.0793C43.9163 47.8506 44.1644 47.6317 44.4661 47.4323H44.4709Z" fill="#FFFAF0"/>
<path d="M55.4018 44.5377C55.6159 44.9123 55.8008 45.3063 55.9564 45.7198C56.6326 46.2696 57.1581 46.9117 57.5326 47.5879C57.737 47.7436 57.9072 47.909 58.0435 48.0793C57.9656 47.5198 57.8294 46.9847 57.6299 46.4739C57.0267 45.6712 56.2581 45.0241 55.397 44.5377H55.4018Z" fill="#FFFAF0"/>
<path d="M51.228 43.3847V44.0609C51.2864 44.0609 51.3448 44.0609 51.4032 44.0609C51.7875 44.0804 52.1572 44.1241 52.5124 44.1874C52.4151 43.9247 52.3178 43.6814 52.2107 43.4674C51.9529 43.4333 51.6951 43.4041 51.4372 43.3896C51.3691 43.3896 51.2961 43.3847 51.228 43.3798V43.3847Z" fill="#FFFAF0"/>
<path d="M46.791 45.1555C47.3115 44.8441 47.8807 44.596 48.4791 44.4111C48.5618 44.1387 48.6542 43.8809 48.7515 43.6376C48.3234 43.7447 47.9051 43.8809 47.5013 44.0463C47.2386 44.382 46.9953 44.7517 46.7861 45.1555C46.7861 45.1555 46.7861 45.1555 46.791 45.1555Z" fill="#FFFAF0"/>
<path d="M58.3747 48.7166H58.4477L58.6763 49.0036L58.7736 48.9841C58.5644 48.016 58.1655 47.1841 57.6304 46.4739C57.825 46.9847 57.966 47.5247 58.0439 48.0793C58.2044 48.2836 58.3163 48.4977 58.3747 48.7166Z" fill="#FFFAF0"/>
<path d="M43.4102 48.7165C43.4637 48.4928 43.5756 48.2787 43.741 48.0793C43.7945 47.6901 43.8772 47.3155 43.9891 46.9457C43.5902 47.549 43.2642 48.2203 43.021 48.9452L43.1426 48.9841L43.3372 48.7117H43.4102V48.7165Z" fill="#FFFAF0"/>
<path d="M55.9614 45.7198C55.8057 45.3063 55.6209 44.9122 55.4068 44.5376C55.0322 44.3236 54.6382 44.1436 54.2344 43.9879C54.4873 44.309 54.7111 44.6544 54.9057 45.0144C55.29 45.2236 55.6403 45.462 55.9614 45.7198Z" fill="#FFFAF0"/>
<path d="M51.228 44.0609V43.3847C51.0042 43.3798 50.7804 43.3798 50.5566 43.3847V44.0609C50.7804 44.0512 51.0042 44.0512 51.228 44.0609Z" fill="#FFFAF0"/>
<path d="M53.2904 44.3625C53.2077 44.0998 53.1202 43.8468 53.0229 43.6182C52.7504 43.5549 52.4829 43.5063 52.2104 43.4673C52.3175 43.6814 52.4196 43.9246 52.5121 44.1873C52.7796 44.236 53.0375 44.2944 53.2904 44.3625Z" fill="#FFFAF0"/>
<path d="M49.5643 43.482C49.287 43.5258 49.0146 43.5744 48.747 43.6425C48.6497 43.8809 48.5573 44.1388 48.4746 44.416C48.7276 44.3382 48.9903 44.275 49.2578 44.2215C49.3551 43.949 49.4573 43.7058 49.5643 43.482Z" fill="#FFFAF0"/>
<path d="M47.5013 44.0512C47.1365 44.202 46.7813 44.382 46.4457 44.5815C46.397 44.6107 46.3484 44.6447 46.2997 44.6739C46.0808 45.0777 45.8959 45.4961 45.7451 45.929C46.0662 45.642 46.4116 45.389 46.7862 45.1653C46.9954 44.7615 47.2386 44.3917 47.5013 44.0561V44.0512Z" fill="#FFFAF0"/>
<path d="M43.8139 48.7166C43.9939 48.2593 44.2129 47.8312 44.4658 47.4323C44.1642 47.6317 43.9161 47.8506 43.7361 48.0793C43.7069 48.2885 43.6875 48.5025 43.6777 48.7166H43.8139Z" fill="#FFFAF0"/>
<path d="M58.1019 48.7166C58.0922 48.5025 58.0727 48.2885 58.0435 48.0793C57.9073 47.909 57.737 47.7436 57.5327 47.588C57.737 47.9577 57.8976 48.3371 58.0095 48.7166H58.097H58.1019Z" fill="#FFFAF0"/>
<path d="M43.7361 48.0792C43.5755 48.2835 43.4637 48.4976 43.4053 48.7165H43.6728C43.6826 48.5025 43.702 48.2884 43.7312 48.0792H43.7361Z" fill="#FFFAF0"/>
<path d="M58.3748 48.7165C58.3212 48.4927 58.2094 48.2787 58.0439 48.0792C58.0731 48.2884 58.0926 48.5025 58.1023 48.7165H58.3699H58.3748Z" fill="#FFFAF0"/>
<path d="M58.3745 48.7166C58.4037 48.8236 58.4183 48.9355 58.4183 49.0522C58.4183 49.0522 58.4183 49.0571 58.4183 49.062L58.681 49.0036L58.4523 48.7166H58.3794H58.3745Z" fill="#FFFAF0"/>
<path d="M43.3664 49.0522C43.3664 48.9403 43.381 48.8284 43.4101 48.7166H43.3372L43.1426 48.989L43.3712 49.0668C43.3712 49.0668 43.3712 49.0571 43.3712 49.0522H43.3664Z" fill="#FFFAF0"/>
<path d="M58.1119 49.0863C58.1119 49.0863 58.1119 49.062 58.1119 49.0474C58.1119 48.9355 58.1119 48.8236 58.1022 48.7117H58.0146C58.0536 48.8334 58.0828 48.9598 58.1119 49.0815V49.0863Z" fill="#FFFAF0"/>
<path d="M43.668 49.0522C43.668 49.0522 43.668 49.0911 43.668 49.1057C43.7118 48.9744 43.7604 48.843 43.8139 48.7166H43.6777C43.6728 48.8284 43.668 48.9403 43.668 49.0522Z" fill="#FFFAF0"/>
<path d="M58.3745 48.7166H58.1069C58.1118 48.8284 58.1167 48.9403 58.1167 49.0522C58.1167 49.0668 58.1167 49.0766 58.1167 49.0911C58.1167 49.1009 58.1215 49.1155 58.1264 49.1252L58.4232 49.062C58.4232 49.062 58.4232 49.0571 58.4232 49.0522C58.4232 48.9403 58.4086 48.8284 58.3794 48.7166H58.3745Z" fill="#FFFAF0"/>
<path d="M43.6727 49.1057C43.6727 49.1057 43.6727 49.0668 43.6727 49.0522C43.6727 48.9403 43.6727 48.8284 43.6824 48.7166H43.4149C43.3857 48.8236 43.3711 48.9355 43.3711 49.0522C43.3711 49.0522 43.3711 49.062 43.3711 49.0668L43.6581 49.1641C43.6581 49.1641 43.6727 49.1301 43.6776 49.1106L43.6727 49.1057Z" fill="#FFFAF0"/>
<path d="M46.9762 36.243L46.0373 36.8511C46.0032 36.7976 45.9303 36.7149 45.8184 36.603C45.7405 36.8365 45.6773 37.0652 45.6238 37.2743C45.0984 39.337 45.2248 41.4095 45.9448 42.9079C46.2416 42.6695 46.553 42.4554 46.8789 42.2608C46.0421 40.3197 46.1297 36.676 49.034 32.9981C48.7373 32.7452 48.4989 32.4727 48.3238 32.1808C48.314 32.1614 48.3043 32.1468 48.2946 32.1273C47.3313 33.3143 46.6794 34.4527 46.2416 35.4695C46.5967 35.776 46.8448 36.0484 46.9713 36.243H46.9762Z" fill="#FFFAF0"/>
<path d="M49.0388 32.9933C49.2674 32.7015 49.5155 32.4096 49.7782 32.1225C49.5155 31.8988 49.2236 31.5728 49.1312 31.1739C48.8296 31.495 48.5523 31.8112 48.2944 32.1274C48.3042 32.1469 48.3139 32.1615 48.3236 32.1809C48.4988 32.4728 48.7371 32.7452 49.0339 32.9982L49.0388 32.9933Z" fill="#FFFAF0"/>
<path d="M47.0681 42.6404C47 42.5236 46.9416 42.3923 46.8833 42.2609C46.5573 42.4555 46.246 42.6696 45.9492 42.908C45.9979 43.0053 46.0416 43.0977 46.0952 43.1901L47.0681 42.6404Z" fill="#FFFAF0"/>
<path d="M54.6286 42.1004C54.9594 42.2804 55.2757 42.4798 55.5724 42.7036C56.3605 41.1955 56.5113 39.0501 55.9713 36.9193C55.9519 36.8366 55.9275 36.7539 55.9032 36.6663C55.8302 36.7441 55.7816 36.8074 55.7524 36.8463L54.8135 36.2382C54.9351 36.0485 55.1686 35.7906 55.5092 35.4987C55.3097 34.9977 55.0616 34.4577 54.7454 33.8982C54.3854 34.0393 54.0108 34.1366 53.6265 34.195C55.5432 37.4447 55.4265 40.4804 54.6286 42.1052V42.1004Z" fill="#FFFAF0"/>
<path d="M52.916 33.11C53.1787 33.47 53.4171 33.8349 53.6312 34.19C54.0155 34.1317 54.3901 34.0392 54.7501 33.8933C54.5701 33.5673 54.3657 33.2365 54.1371 32.896C53.9717 32.9495 53.8063 32.9982 53.636 33.0322C53.4025 33.076 53.1641 33.1003 52.9209 33.11H52.916Z" fill="#FFFAF0"/>
<path d="M55.5042 42.8349C55.5285 42.7912 55.548 42.7474 55.5723 42.7036C55.2707 42.4798 54.9545 42.2803 54.6285 42.1003C54.5994 42.1636 54.5653 42.2268 54.5312 42.2852L55.5042 42.8349Z" fill="#FFFAF0"/>
<path d="M55.9082 36.6712C56.0834 36.4863 56.385 36.2139 56.818 35.9025C56.4434 35.7323 56.1028 35.5182 55.8061 35.2604C55.7039 35.3431 55.6066 35.4209 55.519 35.4988C55.6844 35.9171 55.8109 36.3063 55.9131 36.6663L55.9082 36.6712Z" fill="#FFFAF0"/>
<path d="M63.7597 35.0853C63.964 37.075 63.9202 40.3637 62.6943 43.1172C61.7894 45.1507 60.4029 46.5323 58.5688 47.2377C58.6564 47.6026 58.7148 47.9772 58.7489 48.3615C60.6802 47.6804 62.1932 46.3815 63.2586 44.4842C63.1467 44.4842 63.0397 44.4745 62.9278 44.4745V43.3556C63.2245 43.3556 63.5116 43.3702 63.7937 43.3896C65.1802 40.135 65.1072 36.3453 64.7861 34.2875C64.611 34.4529 64.4213 34.6134 64.2218 34.7642C64.071 34.8761 63.9202 34.9831 63.7597 35.0804V35.0853Z" fill="#FFFAF0"/>
<path d="M58.0727 35.1241C57.9121 35.0852 57.7467 35.0414 57.5813 34.9831C57.304 34.8858 57.0316 34.7544 56.7786 34.5744C56.404 34.8079 56.0732 35.0366 55.7959 35.2555C56.0975 35.5085 56.4332 35.7225 56.8078 35.8976C57.1483 35.6495 57.5716 35.382 58.0678 35.1193L58.0727 35.1241Z" fill="#FFFAF0"/>
<path d="M64.4508 32.9398C64.3827 33.0322 64.3097 33.1246 64.227 33.2122C64.0324 33.4262 63.8087 33.6306 63.5605 33.8252C63.6335 34.1316 63.7065 34.5646 63.76 35.0852C63.9205 34.983 64.0762 34.8808 64.2222 34.7689C64.4216 34.6181 64.6065 34.4625 64.7865 34.2922C64.6892 33.6792 64.5724 33.2171 64.4654 32.9738L64.4508 32.9446V32.9398Z" fill="#FFFAF0"/>
<path d="M58.6276 48.4052C58.6714 48.3906 58.7103 48.3761 58.7541 48.3615C58.72 47.9771 58.6617 47.6025 58.5741 47.2377C58.4768 47.2766 58.3746 47.3155 58.2725 47.3496L58.6276 48.4101V48.4052Z" fill="#FFFAF0"/>
<path d="M54.8184 36.2431L55.7573 36.8512C55.7816 36.8122 55.8351 36.749 55.9081 36.6712C55.8059 36.3112 55.6794 35.9171 55.514 35.5036C55.1784 35.7955 54.94 36.0582 54.8184 36.2431Z" fill="#FFFAF0"/>
<path d="M38.8322 44.7031C38.7739 44.7031 38.7203 44.7031 38.6668 44.7031C39.7176 46.4739 41.182 47.695 43.0306 48.3517C43.0647 47.9674 43.1279 47.5928 43.2106 47.2279C41.3814 46.5225 39.9998 45.1409 39.0949 43.1123C37.5236 39.5852 37.8933 35.1631 38.2436 33.7523C42.3884 33.8204 45.0349 35.8198 45.8133 36.5982C45.9252 36.2431 46.0663 35.8636 46.2414 35.4647C44.8695 34.2825 41.8679 32.575 37.8301 32.6334H37.4701L37.3241 32.969C36.8522 34.0539 36.176 39.3079 38.0733 43.5647C38.0782 43.5793 38.0879 43.5939 38.0928 43.6085C38.336 43.5939 38.5793 43.5842 38.8225 43.5842V44.7031H38.8322Z" fill="#FFFAF0"/>
<path d="M43.5265 47.3447C43.4195 47.3106 43.3173 47.2717 43.2152 47.2328C43.1276 47.5977 43.0692 47.9722 43.0352 48.3566C43.0789 48.3712 43.1276 48.3906 43.1714 48.4052L43.5265 47.3447Z" fill="#FFFAF0"/>
<path d="M46.0373 36.8464L46.9762 36.2383C46.8497 36.0437 46.6016 35.7713 46.2465 35.4648C46.0713 35.8637 45.9351 36.2432 45.8184 36.5983C45.9303 36.7102 46.0032 36.7978 46.0373 36.8464Z" fill="#FFFAF0"/>
<path d="M47.7689 63.1945C46.1294 60.2074 46.1829 57.4442 46.8689 55.8388C46.5429 55.6442 46.2316 55.4253 45.9348 55.1869C45.2197 56.6853 45.0981 58.7528 45.6186 60.8107C45.6721 61.0247 45.7354 61.2485 45.8132 61.482C45.9251 61.3701 45.9981 61.2826 46.0321 61.2339L46.971 61.842C46.8446 62.0366 46.5964 62.3091 46.2413 62.6155C46.3435 62.8491 46.4554 63.0874 46.577 63.3307C46.6451 63.3161 46.7132 63.3015 46.7862 63.2869C47.1121 63.2285 47.4429 63.1993 47.7737 63.1945H47.7689Z" fill="#FFFAF0"/>
<path d="M48.5036 64.3766C48.2263 63.9776 47.9879 63.5836 47.769 63.1944C47.4382 63.1944 47.1074 63.2285 46.7815 63.2868C46.7133 63.3014 46.6452 63.316 46.5723 63.3306C46.7474 63.6712 46.942 64.0214 47.1658 64.3863C47.4042 64.3522 47.6474 64.3328 47.8858 64.3376C48.0901 64.3376 48.2944 64.3571 48.4939 64.3814L48.5036 64.3766Z" fill="#FFFAF0"/>
<path d="M50.0991 67.8647C50.2645 68.0203 50.4396 68.1712 50.6196 68.3268L50.644 68.2976L50.2402 67.8306C50.498 67.6068 50.7461 67.3831 50.9796 67.1593C50.9456 67.1301 50.9067 67.096 50.8726 67.0668C50.6245 67.3149 50.3667 67.5874 50.0942 67.8695L50.0991 67.8647Z" fill="#FFFAF0"/>
<path d="M47.0637 55.4399L46.0908 54.8901C46.0372 54.9874 45.9886 55.0847 45.9399 55.182C46.2367 55.4204 46.5481 55.6393 46.874 55.8339C46.9324 55.6928 47.0005 55.5615 47.0686 55.435L47.0637 55.4399Z" fill="#FFFAF0"/>
<path d="M54.8132 61.8371L55.7521 61.229C55.7764 61.2679 55.8299 61.3312 55.9029 61.409C55.9272 61.3214 55.9515 61.2387 55.971 61.156C56.511 59.035 56.3602 56.8993 55.5818 55.3912C55.2802 55.615 54.964 55.8144 54.638 55.9944C55.5721 57.9209 55.5526 61.7836 52.3856 65.6512C52.5413 66.1085 52.5607 66.5901 52.4148 67.0717L52.371 67.2274L52.2542 67.3344C52.2542 67.3344 52.225 67.3636 52.2104 67.3733C52.2104 67.422 52.2153 67.4658 52.2202 67.5144C53.9521 65.7485 54.9445 64.0166 55.5088 62.5814C55.1732 62.2896 54.9348 62.0268 54.8132 61.8371Z" fill="#FFFAF0"/>
<path d="M52.2494 67.3344L52.3662 67.2273L52.41 67.0717C52.5559 66.59 52.5365 66.1084 52.3808 65.6511C51.9673 66.1522 51.5003 66.6582 50.9797 67.1544C51.1013 67.2614 51.2181 67.3684 51.3446 67.4754L50.644 68.2927L50.97 68.6722C51.4224 68.283 51.8359 67.8938 52.2154 67.5046C52.2154 67.456 52.2057 67.4122 52.2057 67.3636C52.2203 67.349 52.2349 67.3344 52.2494 67.3246V67.3344Z" fill="#FFFAF0"/>
<path d="M54.5264 55.79C54.5653 55.8582 54.5993 55.9263 54.6334 55.9992C54.9642 55.8192 55.2804 55.6198 55.5772 55.396C55.5529 55.3425 55.5237 55.2938 55.4993 55.2452L54.5264 55.7949V55.79Z" fill="#FFFAF0"/>
<path d="M50.644 68.2977L51.3446 67.4804C51.2181 67.3734 51.1013 67.2663 50.9797 67.1593C50.7413 67.3831 50.4981 67.6069 50.2402 67.8307L50.644 68.2977Z" fill="#FFFAF0"/>
<path d="M62.9282 53.1776C62.9525 53.1776 62.9768 53.1776 63.0012 53.1776C61.9601 51.5139 60.5347 50.356 58.7541 49.7285C58.7201 50.1128 58.6617 50.4874 58.5741 50.8522C60.4033 51.5576 61.7849 52.9393 62.6898 54.9679C64.2612 58.4949 63.8914 62.9171 63.5412 64.3279C59.2601 64.2598 56.5795 62.129 55.9033 61.4139C55.8012 61.7739 55.6747 62.1679 55.5093 62.5814C56.8422 63.7441 59.7855 65.4468 63.7601 65.4468C63.8233 65.4468 63.8914 65.4468 63.9547 65.4468H64.3147L64.4606 65.1112C64.9325 64.0263 65.6087 58.7722 63.7114 54.5155C63.6774 54.4328 63.6385 54.3549 63.5995 54.2771C63.3806 54.2917 63.1568 54.2966 62.9331 54.3014V53.1825L62.9282 53.1776Z" fill="#FFFAF0"/>
<path d="M58.4524 50.1761L58.2676 50.7356C58.3746 50.7696 58.4768 50.8085 58.5789 50.8474C58.6665 50.4826 58.7249 50.108 58.7589 49.7237C58.7151 49.7091 58.6762 49.6945 58.6373 49.6799C58.5838 49.8501 58.5254 50.0155 58.4573 50.1761H58.4524Z" fill="#FFFAF0"/>
<path d="M58.6175 49.6749L58.4473 50.1759C58.5154 50.0105 58.5738 49.8451 58.6273 49.6797C58.6273 49.6797 58.6224 49.6797 58.6175 49.6797V49.6749Z" fill="#FFFAF0"/>
<path d="M55.7524 61.2339L54.8135 61.842C54.9351 62.0317 55.1686 62.2896 55.5092 62.5863C55.6746 62.1679 55.801 61.7788 55.9032 61.4188C55.8302 61.3409 55.7816 61.2777 55.7524 61.2388V61.2339Z" fill="#FFFAF0"/>
<path d="M45.8133 61.4819C45.5749 61.7203 45.1614 62.0754 44.5776 62.45C44.8695 62.6933 45.1274 62.9706 45.3414 63.2868C45.6917 63.0533 45.9884 62.8246 46.2366 62.6106C46.0614 62.2116 45.9252 61.8322 45.8084 61.4771L45.8133 61.4819Z" fill="#FFFAF0"/>
<path d="M37.9613 62.1193C37.8591 60.1247 38.0343 57.342 39.0899 54.9631C39.9899 52.9344 41.3764 51.5528 43.2056 50.8474C43.118 50.4826 43.0597 50.108 43.0256 49.7236C41.1672 50.3804 39.6932 51.6161 38.6424 53.4015C38.7056 53.4015 38.7689 53.4015 38.8321 53.4063V54.5253C38.5743 54.5253 38.3262 54.5155 38.0781 54.5009C38.0781 54.5058 38.0732 54.5107 38.0683 54.5155C36.8326 57.2982 36.6916 60.5042 36.8716 62.6982C36.9689 62.635 37.071 62.5766 37.1732 62.5182C37.4262 62.3723 37.6889 62.2458 37.9564 62.1242L37.9613 62.1193Z" fill="#FFFAF0"/>
<path d="M37.2511 63.8171C37.504 63.6371 37.7813 63.4766 38.0684 63.3306C38.0246 62.9755 37.9857 62.5717 37.9613 62.1241C37.6938 62.2409 37.4311 62.3723 37.1781 62.5182C37.0759 62.5766 36.9738 62.635 36.8765 62.6982C36.9154 63.1798 36.9738 63.6128 37.037 63.9825C37.11 63.929 37.1781 63.8755 37.2511 63.822V63.8171Z" fill="#FFFAF0"/>
<path d="M44.5775 62.4501C44.2613 62.6544 43.9013 62.8636 43.4927 63.0679C43.8138 63.2625 44.1105 63.5301 44.3538 63.8755C44.7186 63.6809 45.0446 63.4814 45.3413 63.2868C45.1273 62.9706 44.8694 62.6933 44.5775 62.4501Z" fill="#FFFAF0"/>
<path d="M43.1621 49.6749C43.1183 49.6895 43.0745 49.7089 43.0308 49.7235C43.0648 50.1078 43.1232 50.4824 43.2108 50.8473C43.3129 50.8084 43.4151 50.7695 43.5221 50.7354L43.167 49.6749H43.1621Z" fill="#FFFAF0"/>
<path d="M46.9713 61.8371L46.0324 61.229C45.9983 61.2825 45.9254 61.3652 45.8135 61.4771C45.9254 61.8322 46.0664 62.2117 46.2416 62.6106C46.5967 62.3041 46.8448 62.0317 46.9713 61.8371Z" fill="#FFFAF0"/>
<path d="M63.2588 44.4842C67.8755 44.635 70.415 47.3982 71.422 48.8236C71.5631 48.6242 71.675 48.4442 71.7577 48.308L72.6139 48.8236L72.7161 48.7604C72.0885 47.7193 70.9355 46.2307 68.9847 45.0436C67.4085 44.0804 65.6669 43.5258 63.7891 43.3896C63.7647 43.448 63.7404 43.5063 63.7161 43.5696C63.575 43.8907 63.4193 44.1923 63.2588 44.4842Z" fill="#FFFAF0"/>
<path d="M62.9282 44.4744C63.0401 44.4744 63.152 44.4793 63.259 44.4841C63.4244 44.1922 63.5752 43.8906 63.7163 43.5695C63.7407 43.5111 63.765 43.4528 63.7893 43.3895C63.5071 43.3701 63.2201 43.3555 62.9282 43.3555V44.4744Z" fill="#FFFAF0"/>
<path d="M71.4221 48.8237C70.3956 50.2783 67.7783 53.1193 63.001 53.1729C63.215 53.5183 63.4145 53.8831 63.5994 54.2723C65.5502 54.1604 67.3599 53.601 68.9896 52.6085C70.9356 51.4166 72.0934 49.928 72.721 48.8918L72.6188 48.8285L71.7626 49.3442C71.6799 49.208 71.568 49.0329 71.4269 48.8285L71.4221 48.8237Z" fill="#FFFAF0"/>
<path d="M62.9282 53.1777V54.2966C63.1569 54.2966 63.3807 54.2868 63.5996 54.2722C63.4147 53.8831 63.2201 53.5182 63.0012 53.1728C62.9769 53.1728 62.9525 53.1728 62.9282 53.1728V53.1777Z" fill="#FFFAF0"/>
<path d="M71.4224 48.8236C71.5634 49.0231 71.6753 49.2031 71.758 49.3393L72.6143 48.8236L71.758 48.3079C71.6753 48.4441 71.5634 48.6193 71.4224 48.8236Z" fill="#FFFAF0"/>
<path d="M30.338 49.0523C31.3596 47.6074 33.9477 44.7955 38.6666 44.7079C38.4623 44.3625 38.2726 43.9977 38.0974 43.6133C36.171 43.735 34.3855 44.2896 32.7704 45.2771C30.8245 46.469 29.6666 47.9577 29.0391 48.9939L29.1412 49.0571L29.9974 48.5414C30.0801 48.6777 30.192 48.8528 30.3331 49.0571L30.338 49.0523Z" fill="#FFFAF0"/>
<path d="M38.8323 44.703V43.5841C38.5793 43.5841 38.336 43.5938 38.0977 43.6084C38.2728 43.9928 38.4625 44.3576 38.6668 44.703C38.7204 44.703 38.7787 44.703 38.8323 44.703Z" fill="#FFFAF0"/>
<path d="M30.338 49.0522C30.1969 49.2517 30.085 49.4317 30.0023 49.5679L29.1461 49.0522L29.0439 49.1155C29.6715 50.1566 30.8245 51.6452 32.7753 52.8322C34.3807 53.8149 36.1661 54.3695 38.0829 54.4912C38.2531 54.1068 38.4477 53.742 38.6521 53.3966C33.9477 53.2993 31.3645 50.4971 30.3429 49.0522H30.338Z" fill="#FFFAF0"/>
<path d="M38.8322 53.4015C38.7689 53.4015 38.7057 53.4015 38.6424 53.3966C38.4381 53.742 38.2484 54.1069 38.0732 54.4912C38.3214 54.5058 38.5695 54.5155 38.8224 54.5155V53.3966L38.8322 53.4015Z" fill="#FFFAF0"/>
<path d="M30.3384 49.0523C30.1973 48.8528 30.0854 48.6728 30.0027 48.5366L29.1465 49.0523L30.0027 49.568C30.0854 49.4318 30.1973 49.2566 30.3384 49.0523Z" fill="#FFFAF0"/>
<path d="M5.56306 38.7925L4.9508 41.1737L1.64952 40.3248L1.86843 39.4735L4.53118 40.1581L4.92454 38.6283L5.56306 38.7925Z" fill="#FFFAF0"/>
<path d="M7.87721 32.0467L6.87126 34.2977L3.75923 32.9069L4.76518 30.656L5.3671 30.925L4.71795 32.3775L5.25509 32.6176L5.85754 31.2695L6.45946 31.5385L5.85701 32.8866L6.62613 33.2303L7.27528 31.7777L7.87721 32.0467Z" fill="#FFFAF0"/>
<path d="M13.4591 20.8996C13.5858 21.005 13.6775 21.1251 13.7342 21.2597C13.792 21.3931 13.8166 21.5317 13.8081 21.6755C13.7996 21.8432 13.76 22.0029 13.6894 22.1545C13.6197 22.305 13.5058 22.4753 13.3476 22.6653L12.3957 23.809L9.77579 21.6285L10.6222 20.6115C10.798 20.4003 10.9334 20.2519 11.0285 20.1663C11.1246 20.0795 11.2367 20.008 11.3648 19.9518C11.4983 19.8941 11.6278 19.8768 11.7535 19.9C11.8789 19.921 11.9962 19.9769 12.1053 20.0677C12.232 20.1732 12.3162 20.2998 12.3579 20.4477C12.3984 20.5947 12.3949 20.7516 12.3474 20.9185L12.3614 20.9302C12.538 20.7872 12.7211 20.7103 12.9109 20.6995C13.1016 20.6874 13.2843 20.7541 13.4591 20.8996ZM11.6617 20.8691C11.6183 20.8329 11.5657 20.808 11.5037 20.7941C11.4427 20.7791 11.3788 20.7904 11.3118 20.828C11.252 20.8616 11.1908 20.9149 11.1281 20.9878C11.0652 21.0586 10.9786 21.1603 10.8683 21.2928L10.8156 21.3561L11.3698 21.8174L11.4577 21.7119C11.5465 21.6051 11.6204 21.5128 11.6794 21.4348C11.7384 21.3567 11.7759 21.2877 11.7921 21.2277C11.8159 21.1443 11.8145 21.0756 11.7879 21.0217C11.7601 20.9668 11.7181 20.9159 11.6617 20.8691ZM12.8657 21.5911C12.7824 21.5218 12.7048 21.485 12.6329 21.4808C12.5608 21.4744 12.4814 21.5006 12.3946 21.5595C12.3355 21.5996 12.2667 21.6655 12.1884 21.7571C12.1101 21.8488 12.029 21.9451 11.945 22.046L11.822 22.1938L12.4748 22.7371L12.5158 22.6878C12.674 22.4978 12.7866 22.3613 12.8538 22.2782C12.921 22.1951 12.9687 22.1067 12.997 22.0131C13.0262 21.9183 13.0275 21.838 13.0009 21.7722C12.9741 21.7042 12.929 21.6438 12.8657 21.5911Z" fill="#FFFAF0"/>
<path d="M19.7785 15.9148L17.8918 17.5019L15.6976 14.8934L17.5843 13.3063L18.0087 13.8109L16.7912 14.835L17.1699 15.2853L18.2998 14.3348L18.7242 14.8393L17.5943 15.7898L18.1366 16.4345L19.3541 15.4103L19.7785 15.9148Z" fill="#FFFAF0"/>
<path d="M26.505 11.128L25.7171 11.5809L25.1693 11.101L24.0737 11.7307L24.2127 12.4456L23.4446 12.8871L22.8375 9.30443L23.7148 8.8002L26.505 11.128ZM24.6733 10.6653L23.7009 9.8142L23.9469 11.0828L24.6733 10.6653Z" fill="#FFFAF0"/>
<path d="M33.6465 6.45695C33.783 6.85544 33.7663 7.20234 33.5965 7.49767C33.4266 7.793 33.1056 8.02153 32.6335 8.18326C32.1614 8.345 31.7677 8.36129 31.4524 8.23215C31.1386 8.10251 30.9137 7.83917 30.7777 7.44213L30.0722 5.38258L30.9081 5.0962L31.5973 7.10811C31.674 7.3319 31.778 7.48258 31.9095 7.56016C32.0409 7.63774 32.212 7.64042 32.4228 7.56821C32.6307 7.49699 32.7643 7.39236 32.8235 7.25432C32.8841 7.11579 32.8746 6.93029 32.7949 6.69784L32.1057 4.68593L32.9417 4.39956L33.6465 6.45695Z" fill="#FFFAF0"/>
<path d="M97.0941 56.1306L96.2962 56.0284C96.5589 54.0047 96.6903 51.942 96.6903 49.8987C96.6903 37.2647 91.7719 25.3895 82.84 16.4577C73.9081 7.52577 62.033 2.60739 49.399 2.60739C47.3606 2.60739 45.3027 2.73874 43.2887 3.00144L43.1865 2.20361C45.2395 1.9409 47.3314 1.80469 49.399 1.80469C62.2471 1.80469 74.3265 6.80577 83.4092 15.8933C92.4919 24.976 97.4979 37.0555 97.4979 49.9036C97.4979 51.9809 97.3616 54.0776 97.0989 56.1355L97.0941 56.1306Z" fill="#FFFAF0"/>
<path d="M49.3987 97.9976C36.5506 97.9976 24.476 92.9966 15.3884 83.909C6.30575 74.8263 1.2998 62.7468 1.2998 49.8987C1.2998 48.6193 1.35332 47.3106 1.45548 46.0068L2.25818 46.0701C2.15602 47.3495 2.10251 48.6387 2.10251 49.8939C2.10251 62.5279 7.02088 74.403 15.9528 83.3349C24.8847 92.2668 36.7598 97.1852 49.3938 97.1852C53.8063 97.1852 58.1701 96.5771 62.3733 95.3803L62.5922 96.1539C58.316 97.3701 53.8744 97.9879 49.389 97.9879L49.3987 97.9976Z" fill="#FFFAF0"/>
<path d="M71.6979 93.78L70.9041 94.1468L69.9468 92.075L69.9945 93.6845L69.4438 93.939L68.249 92.8595L69.2063 94.9313L68.454 95.2789L67.0242 92.1846L67.9511 91.7564L69.3645 92.987L69.3413 91.114L70.2682 90.6857L71.6979 93.78Z" fill="#FFFAF0"/>
<path d="M80.0087 86.7853C80.3502 87.2078 80.5007 87.6416 80.46 88.0865C80.4184 88.5303 80.184 88.9249 79.7567 89.2703C79.3306 89.6147 78.8963 89.7607 78.4536 89.7084C78.01 89.6549 77.6175 89.4168 77.2759 88.9943C76.9315 88.5682 76.7806 88.1339 76.8231 87.6913C76.8647 87.2475 77.0986 86.8534 77.5247 86.509C77.9496 86.1655 78.3839 86.0195 78.8278 86.0709C79.2706 86.121 79.6643 86.3592 80.0087 86.7853ZM79.6451 88.189C79.6463 88.0545 79.6188 87.9198 79.5626 87.7847C79.5054 87.6484 79.4168 87.5061 79.2969 87.3577C79.1684 87.1987 79.0406 87.0782 78.9136 86.9964C78.7866 86.9146 78.6656 86.8632 78.5507 86.8424C78.4326 86.8201 78.3208 86.825 78.2154 86.8573C78.1111 86.8886 78.0163 86.9387 77.9308 87.0078C77.8442 87.0778 77.7748 87.1595 77.7226 87.2527C77.6716 87.345 77.6428 87.4526 77.6363 87.5756C77.6306 87.6901 77.6563 87.8214 77.7133 87.9696C77.7706 88.1156 77.8615 88.2658 77.9863 88.4201C78.1139 88.578 78.2406 88.6983 78.3663 88.7811C78.4924 88.8617 78.6133 88.913 78.7293 88.9351C78.8452 88.9572 78.9564 88.9527 79.0628 88.9216C79.1692 88.8906 79.2663 88.8395 79.3541 88.7685C79.4419 88.6976 79.5122 88.6133 79.5648 88.5158C79.6165 88.4171 79.6433 88.3081 79.6451 88.189Z" fill="#FFFAF0"/>
<path d="M88.1511 81.0426L87.6354 81.7145L84.8986 81.4376L86.7544 82.8621L86.2638 83.5014L83.5599 81.4258L84.1997 80.5923L86.5056 80.7953L84.9566 79.6063L85.4472 78.9671L88.1511 81.0426Z" fill="#FFFAF0"/>
<path d="M91.9788 71.5624C92.2687 71.6917 92.4991 71.8739 92.67 72.1089C92.8396 72.3433 92.9406 72.5889 92.9731 72.8457C92.9973 73.0386 92.9871 73.2338 92.9425 73.4311C92.8979 73.6285 92.8203 73.8512 92.7097 74.0993L92.2201 75.1969L89.1071 73.8083L89.6106 72.6793C89.7238 72.4257 89.843 72.2165 89.9683 72.0518C90.0922 71.8865 90.2211 71.7585 90.3551 71.6679C90.5819 71.5117 90.8341 71.422 91.1118 71.3988C91.3888 71.3736 91.6778 71.4281 91.9788 71.5624ZM91.6023 72.3896C91.3974 72.2982 91.2057 72.2578 91.0272 72.2684C90.8479 72.277 90.6811 72.3438 90.5267 72.4688C90.4496 72.533 90.3848 72.6052 90.3324 72.6854C90.2791 72.7636 90.2139 72.8891 90.1368 73.0619L90.0464 73.2647L91.9949 74.1339L92.0853 73.9311C92.1705 73.7402 92.2246 73.5963 92.2477 73.4997C92.2694 73.4024 92.2762 73.301 92.2681 73.1955C92.2497 73.0118 92.1861 72.8547 92.0772 72.7243C91.9669 72.5932 91.8086 72.4816 91.6023 72.3896Z" fill="#FFFAF0"/>
<path d="M96.4534 63.5788L95.9412 65.9905L92.6069 65.2824L93.1191 62.8707L93.764 63.0076L93.4335 64.5639L94.009 64.6862L94.3158 63.2418L94.9607 63.3788L94.6539 64.8231L95.478 64.9981L95.8085 63.4418L96.4534 63.5788Z" fill="#FFFAF0"/>
</svg>
