<svg width="338" height="60" viewBox="0 0 338 60" fill="none" xmlns="http://www.w3.org/2000/svg">
<path d="M11.9403 33C7.02892 32.9717 2.96631 22.9459 2.96631 17.84C2.96631 9.49951 9.22309 7.67355 11.6344 7.67355C12.7211 7.67355 13.8814 8.1003 14.9049 8.47793C15.6206 8.74135 16.3608 9.01327 16.7724 9.01327C17.0188 9.01327 17.5995 8.78195 18.1121 8.57899C19.2055 8.14374 20.5659 7.60278 22.1502 7.60278C22.153 7.60278 22.1568 7.60278 22.1596 7.60278C23.3426 7.60278 26.9294 7.8624 29.0858 11.1008L29.5909 11.8598L28.864 12.4084C27.8254 13.192 25.9305 14.6215 25.9305 17.453C25.9305 20.8065 28.0765 22.0962 29.1075 22.7165C29.5626 22.9903 30.0337 23.2726 30.0337 23.8901C30.0337 24.2932 26.8161 32.95 22.1436 32.95C21.0002 32.95 20.192 32.6063 19.4792 32.3033C18.7579 31.9964 18.1357 31.7321 17.1075 31.7321C16.5863 31.7321 15.9273 31.9785 15.2296 32.2401C14.2762 32.5959 13.197 33 11.9724 33H11.9403Z" fill="#4F4F4F"/>
<path d="M22.645 0C22.7667 4.38771 19.6288 7.4317 16.4945 7.24079C15.9781 3.73925 19.6284 0 22.645 0Z" fill="#4F4F4F"/>
<path d="M241 11L243.021 17.2188H249.56L244.269 21.0623L246.29 27.2812L241 23.4377L235.71 27.2812L237.731 21.0623L232.44 17.2188H238.979L241 11Z" fill="#FFCE20"/>
<path d="M263 11L265.021 17.2188H271.56L266.269 21.0623L268.29 27.2812L263 23.4377L257.71 27.2812L259.731 21.0623L254.44 17.2188H260.979L263 11Z" fill="#FFCE20"/>
<path d="M285 11L287.021 17.2188H293.56L288.269 21.0623L290.29 27.2812L285 23.4377L279.71 27.2812L281.731 21.0623L276.44 17.2188H282.979L285 11Z" fill="#FFCE20"/>
<path d="M307 11L309.021 17.2188H315.56L310.269 21.0623L312.29 27.2812L307 23.4377L301.71 27.2812L303.731 21.0623L298.44 17.2188H304.979L307 11Z" fill="#FFCE20"/>
<path d="M49 11L51.0206 17.2188H57.5595L52.2694 21.0623L54.2901 27.2812L49 23.4377L43.7099 27.2812L45.7306 21.0623L40.4405 17.2188H46.9794L49 11Z" fill="#FFCE20"/>
<path d="M71 11L73.0206 17.2188H79.5595L74.2694 21.0623L76.2901 27.2812L71 23.4377L65.7099 27.2812L67.7306 21.0623L62.4405 17.2188H68.9794L71 11Z" fill="#FFCE20"/>
<path d="M93 11L95.0206 17.2188H101.56L96.2694 21.0623L98.2901 27.2812L93 23.4377L87.7099 27.2812L89.7306 21.0623L84.4405 17.2188H90.9794L93 11Z" fill="#FFCE20"/>
<path d="M115 11L117.021 17.2188H123.56L118.269 21.0623L120.29 27.2812L115 23.4377L109.71 27.2812L111.731 21.0623L106.44 17.2188H112.979L115 11Z" fill="#FFCE20"/>
<path d="M137 11L139.021 17.2188H145.56L140.269 21.0623L142.29 27.2812L137 23.4377L131.71 27.2812L133.731 21.0623L128.44 17.2188H134.979L137 11Z" fill="#FFCE20"/>
<path d="M139 17L137 11V23.5L142.5 27.5L140.5 21L145.5 17H139Z" fill="#FAEBB6"/>
<path d="M329 11L331.021 17.2188H337.56L332.269 21.0623L334.29 27.2812L329 23.4377L323.71 27.2812L325.731 21.0623L320.44 17.2188H326.979L329 11Z" fill="#FFCE20"/>
<path d="M331 17L329 11V23.5L334.5 27.5L332.5 21L337.5 17H331Z" fill="#FAEBB6"/>
<g clip-path="url(#clip0_160_1146)">
<path d="M194.581 10.6892C194.012 10.6892 193.53 10.8875 193.133 11.2841C192.737 11.6806 192.539 12.1565 192.539 12.7119V21.2395C192.539 21.8088 192.737 22.2908 193.133 22.6874C193.53 23.084 194.012 23.2823 194.581 23.2823C195.149 23.2823 195.629 23.084 196.019 22.6874C196.409 22.2908 196.604 21.8088 196.604 21.2395V12.7119C196.604 12.1564 196.406 11.6806 196.009 11.2841C195.613 10.8875 195.136 10.6892 194.581 10.6892Z" fill="#4F4F4F"/>
<path d="M211.002 3.03399L212.41 0.436468C212.502 0.264501 212.469 0.132632 212.311 0.0399055C212.139 -0.0400514 212.007 0.000464104 211.914 0.158588L210.487 2.77688C209.23 2.22142 207.901 1.94318 206.5 1.94318C205.099 1.94318 203.77 2.22148 202.514 2.77688L201.086 0.158588C200.993 0.000464104 200.861 -0.0396933 200.69 0.0399055C200.531 0.133049 200.498 0.264501 200.591 0.436468L201.999 3.03399C200.571 3.76214 199.434 4.77622 198.588 6.07844C197.742 7.38138 197.318 8.80521 197.318 10.3524H215.662C215.662 8.80557 215.239 7.38168 214.393 6.07844C213.547 4.77622 212.416 3.76214 211.002 3.03399ZM202.861 6.81213C202.709 6.96477 202.527 7.04073 202.315 7.04073C202.104 7.04073 201.925 6.96477 201.78 6.81213C201.635 6.66022 201.562 6.47906 201.562 6.26694C201.562 6.05553 201.635 5.87401 201.78 5.72174C201.925 5.56982 202.104 5.49386 202.315 5.49386C202.527 5.49386 202.709 5.56982 202.861 5.72174C203.013 5.87437 203.089 6.05553 203.089 6.26694C203.089 6.4787 203.012 6.66022 202.861 6.81213ZM211.22 6.81213C211.074 6.96477 210.896 7.04073 210.684 7.04073C210.473 7.04073 210.291 6.96477 210.139 6.81213C209.987 6.66022 209.911 6.47906 209.911 6.26694C209.911 6.05553 209.987 5.87401 210.139 5.72174C210.291 5.56982 210.473 5.49386 210.684 5.49386C210.896 5.49386 211.074 5.56982 211.22 5.72174C211.365 5.87437 211.438 6.05553 211.438 6.26694C211.438 6.4787 211.365 6.66022 211.22 6.81213Z" fill="#4F4F4F"/>
<path d="M197.397 24.2737C197.397 24.8825 197.609 25.3978 198.032 25.8206C198.455 26.2435 198.97 26.4549 199.579 26.4549H201.046L201.066 30.9572C201.066 31.5257 201.265 32.0085 201.661 32.4052C202.058 32.8018 202.534 33.0001 203.089 33.0001C203.657 33.0001 204.14 32.8018 204.537 32.4052C204.933 32.0085 205.132 31.5258 205.132 30.9572V26.4554H207.868V30.9572C207.868 31.5257 208.066 32.0085 208.463 32.4052C208.86 32.8018 209.342 33.0001 209.911 33.0001C210.479 33.0001 210.962 32.8018 211.358 32.4052C211.755 32.0085 211.953 31.5258 211.953 30.9572V26.4554H213.44C214.035 26.4554 214.544 26.2439 214.968 25.821C215.39 25.3981 215.602 24.8828 215.602 24.2741V11.0657H197.397V24.2737Z" fill="#4F4F4F"/>
<path d="M218.419 10.6892C217.864 10.6892 217.388 10.8846 216.991 11.2742C216.595 11.6646 216.396 12.1441 216.396 12.7119V21.2395C216.396 21.8088 216.595 22.2908 216.991 22.6874C217.388 23.084 217.864 23.2823 218.419 23.2823C218.987 23.2823 219.47 23.084 219.867 22.6874C220.263 22.2908 220.462 21.8088 220.462 21.2395V12.7119C220.462 12.144 220.263 11.6646 219.867 11.2742C219.47 10.8846 218.987 10.6892 218.419 10.6892Z" fill="#4F4F4F"/>
</g>
<path d="M11.884 54.936H10.288V57H9.124V54.936H4.456V54.096L8.752 48.6H10.048L5.932 53.904H9.16V52.08H10.288V53.904H11.884V54.936ZM13.6297 57.072C13.4057 57.072 13.2137 56.996 13.0537 56.844C12.8937 56.684 12.8137 56.484 12.8137 56.244C12.8137 56.012 12.8937 55.82 13.0537 55.668C13.2137 55.508 13.4057 55.428 13.6297 55.428C13.8537 55.428 14.0417 55.504 14.1937 55.656C14.3457 55.808 14.4217 56.004 14.4217 56.244C14.4217 56.484 14.3417 56.684 14.1817 56.844C14.0297 56.996 13.8457 57.072 13.6297 57.072ZM17.9565 51.948C19.1565 51.948 20.0365 52.176 20.5965 52.632C21.1645 53.08 21.4485 53.696 21.4485 54.48C21.4485 54.976 21.3285 55.424 21.0885 55.824C20.8565 56.216 20.5005 56.528 20.0205 56.76C19.5485 56.984 18.9645 57.096 18.2685 57.096C17.6765 57.096 17.1045 57.008 16.5525 56.832C16.0005 56.648 15.5445 56.396 15.1845 56.076L15.7365 55.128C16.0245 55.4 16.3925 55.62 16.8405 55.788C17.2885 55.948 17.7605 56.028 18.2565 56.028C18.8885 56.028 19.3765 55.896 19.7205 55.632C20.0725 55.36 20.2485 54.992 20.2485 54.528C20.2485 54.024 20.0565 53.644 19.6725 53.388C19.2885 53.124 18.6325 52.992 17.7045 52.992H15.7965L16.2405 48.6H20.9805V49.644H17.2485L17.0205 51.948H17.9565ZM25.4951 46.896H26.5391L22.5791 58.2H21.5351L25.4951 46.896ZM29.0658 51.948C30.2658 51.948 31.1458 52.176 31.7058 52.632C32.2738 53.08 32.5578 53.696 32.5578 54.48C32.5578 54.976 32.4378 55.424 32.1978 55.824C31.9658 56.216 31.6098 56.528 31.1298 56.76C30.6578 56.984 30.0738 57.096 29.3778 57.096C28.7858 57.096 28.2138 57.008 27.6618 56.832C27.1098 56.648 26.6538 56.396 26.2938 56.076L26.8458 55.128C27.1338 55.4 27.5018 55.62 27.9498 55.788C28.3978 55.948 28.8698 56.028 29.3658 56.028C29.9978 56.028 30.4858 55.896 30.8298 55.632C31.1818 55.36 31.3578 54.992 31.3578 54.528C31.3578 54.024 31.1658 53.644 30.7818 53.388C30.3978 53.124 29.7418 52.992 28.8138 52.992H26.9058L27.3498 48.6H32.0898V49.644H28.3578L28.1298 51.948H29.0658ZM39.1191 57.072C38.5991 57.072 38.0991 57.004 37.6191 56.868C37.1391 56.724 36.7631 56.544 36.4911 56.328L36.9711 55.416C37.2511 55.616 37.5911 55.776 37.9911 55.896C38.3911 56.016 38.7951 56.076 39.2031 56.076C40.2111 56.076 40.7151 55.788 40.7151 55.212C40.7151 55.02 40.6471 54.868 40.5111 54.756C40.3751 54.644 40.2031 54.564 39.9951 54.516C39.7951 54.46 39.5071 54.4 39.1311 54.336C38.6191 54.256 38.1991 54.164 37.8711 54.06C37.5511 53.956 37.2751 53.78 37.0431 53.532C36.8111 53.284 36.6951 52.936 36.6951 52.488C36.6951 51.912 36.9351 51.452 37.4151 51.108C37.8951 50.756 38.5391 50.58 39.3471 50.58C39.7711 50.58 40.1951 50.632 40.6191 50.736C41.0431 50.84 41.3911 50.98 41.6631 51.156L41.1711 52.068C40.6511 51.732 40.0391 51.564 39.3351 51.564C38.8471 51.564 38.4751 51.644 38.2191 51.804C37.9631 51.964 37.8351 52.176 37.8351 52.44C37.8351 52.648 37.9071 52.812 38.0511 52.932C38.1951 53.052 38.3711 53.14 38.5791 53.196C38.7951 53.252 39.0951 53.316 39.4791 53.388C39.9911 53.476 40.4031 53.572 40.7151 53.676C41.0351 53.772 41.3071 53.94 41.5311 54.18C41.7551 54.42 41.8671 54.756 41.8671 55.188C41.8671 55.764 41.6191 56.224 41.1231 56.568C40.6351 56.904 39.9671 57.072 39.1191 57.072ZM49.2348 50.64V57H48.1428V56.04C47.9108 56.368 47.6028 56.624 47.2188 56.808C46.8428 56.984 46.4308 57.072 45.9828 57.072C45.1348 57.072 44.4668 56.84 43.9788 56.376C43.4908 55.904 43.2468 55.212 43.2468 54.3V50.64H44.3988V54.168C44.3988 54.784 44.5468 55.252 44.8428 55.572C45.1388 55.884 45.5628 56.04 46.1148 56.04C46.7228 56.04 47.2028 55.856 47.5548 55.488C47.9068 55.12 48.0828 54.6 48.0828 53.928V50.64H49.2348ZM52.5319 51.708C52.7319 51.34 53.0279 51.06 53.4199 50.868C53.8119 50.676 54.2879 50.58 54.8479 50.58V51.696C54.7839 51.688 54.6959 51.684 54.5839 51.684C53.9599 51.684 53.4679 51.872 53.1079 52.248C52.7559 52.616 52.5799 53.144 52.5799 53.832V57H51.4279V50.64H52.5319V51.708ZM64.6605 53.28H62.4765V55.428H61.4685V53.28H59.2845V52.332H61.4685V50.172H62.4765V52.332H64.6605V53.28ZM73.4309 54.936H71.8349V57H70.6709V54.936H66.0029V54.096L70.2989 48.6H71.5949L67.4789 53.904H70.7069V52.08H71.8349V53.904H73.4309V54.936ZM77.5822 57.096C76.9182 57.096 76.3262 56.928 75.8062 56.592C75.2942 56.248 74.8902 55.752 74.5942 55.104C74.2982 54.456 74.1502 53.688 74.1502 52.8C74.1502 51.912 74.2982 51.144 74.5942 50.496C74.8902 49.848 75.2942 49.356 75.8062 49.02C76.3262 48.676 76.9182 48.504 77.5822 48.504C78.2382 48.504 78.8222 48.676 79.3342 49.02C79.8542 49.356 80.2622 49.848 80.5582 50.496C80.8542 51.144 81.0022 51.912 81.0022 52.8C81.0022 53.688 80.8542 54.456 80.5582 55.104C80.2622 55.752 79.8542 56.248 79.3342 56.592C78.8222 56.928 78.2382 57.096 77.5822 57.096ZM77.5822 56.028C78.2542 56.028 78.7902 55.752 79.1902 55.2C79.5982 54.648 79.8022 53.848 79.8022 52.8C79.8022 51.752 79.5982 50.952 79.1902 50.4C78.7902 49.848 78.2542 49.572 77.5822 49.572C76.9022 49.572 76.3582 49.848 75.9502 50.4C75.5502 50.952 75.3502 51.752 75.3502 52.8C75.3502 53.848 75.5502 54.648 75.9502 55.2C76.3582 55.752 76.9022 56.028 77.5822 56.028ZM88.8088 57.096C88.1448 57.096 87.5528 56.928 87.0328 56.592C86.5208 56.248 86.1168 55.752 85.8208 55.104C85.5248 54.456 85.3768 53.688 85.3768 52.8C85.3768 51.912 85.5248 51.144 85.8208 50.496C86.1168 49.848 86.5208 49.356 87.0328 49.02C87.5528 48.676 88.1448 48.504 88.8088 48.504C89.4648 48.504 90.0488 48.676 90.5608 49.02C91.0808 49.356 91.4888 49.848 91.7848 50.496C92.0808 51.144 92.2288 51.912 92.2288 52.8C92.2288 53.688 92.0808 54.456 91.7848 55.104C91.4888 55.752 91.0808 56.248 90.5608 56.592C90.0488 56.928 89.4648 57.096 88.8088 57.096ZM88.8088 56.028C89.4808 56.028 90.0168 55.752 90.4168 55.2C90.8248 54.648 91.0288 53.848 91.0288 52.8C91.0288 51.752 90.8248 50.952 90.4168 50.4C90.0168 49.848 89.4808 49.572 88.8088 49.572C88.1288 49.572 87.5848 49.848 87.1768 50.4C86.7768 50.952 86.5768 51.752 86.5768 52.8C86.5768 53.848 86.7768 54.648 87.1768 55.2C87.5848 55.752 88.1288 56.028 88.8088 56.028ZM96.8127 57.096C96.1487 57.096 95.5567 56.928 95.0367 56.592C94.5247 56.248 94.1207 55.752 93.8247 55.104C93.5287 54.456 93.3807 53.688 93.3807 52.8C93.3807 51.912 93.5287 51.144 93.8247 50.496C94.1207 49.848 94.5247 49.356 95.0367 49.02C95.5567 48.676 96.1487 48.504 96.8127 48.504C97.4687 48.504 98.0527 48.676 98.5647 49.02C99.0847 49.356 99.4927 49.848 99.7887 50.496C100.085 51.144 100.233 51.912 100.233 52.8C100.233 53.688 100.085 54.456 99.7887 55.104C99.4927 55.752 99.0847 56.248 98.5647 56.592C98.0527 56.928 97.4687 57.096 96.8127 57.096ZM96.8127 56.028C97.4847 56.028 98.0207 55.752 98.4207 55.2C98.8287 54.648 99.0327 53.848 99.0327 52.8C99.0327 51.752 98.8287 50.952 98.4207 50.4C98.0207 49.848 97.4847 49.572 96.8127 49.572C96.1327 49.572 95.5887 49.848 95.1807 50.4C94.7807 50.952 94.5807 51.752 94.5807 52.8C94.5807 53.848 94.7807 54.648 95.1807 55.2C95.5887 55.752 96.1327 56.028 96.8127 56.028ZM104.817 57.096C104.153 57.096 103.561 56.928 103.041 56.592C102.529 56.248 102.125 55.752 101.829 55.104C101.533 54.456 101.385 53.688 101.385 52.8C101.385 51.912 101.533 51.144 101.829 50.496C102.125 49.848 102.529 49.356 103.041 49.02C103.561 48.676 104.153 48.504 104.817 48.504C105.473 48.504 106.057 48.676 106.569 49.02C107.089 49.356 107.497 49.848 107.793 50.496C108.089 51.144 108.237 51.912 108.237 52.8C108.237 53.688 108.089 54.456 107.793 55.104C107.497 55.752 107.089 56.248 106.569 56.592C106.057 56.928 105.473 57.096 104.817 57.096ZM104.817 56.028C105.489 56.028 106.025 55.752 106.425 55.2C106.833 54.648 107.037 53.848 107.037 52.8C107.037 51.752 106.833 50.952 106.425 50.4C106.025 49.848 105.489 49.572 104.817 49.572C104.137 49.572 103.593 49.848 103.185 50.4C102.785 50.952 102.585 51.752 102.585 52.8C102.585 53.848 102.785 54.648 103.185 55.2C103.593 55.752 104.137 56.028 104.817 56.028ZM116.523 50.58C117.331 50.58 117.971 50.816 118.443 51.288C118.923 51.752 119.163 52.436 119.163 53.34V57H118.011V53.472C118.011 52.856 117.863 52.392 117.567 52.08C117.271 51.768 116.847 51.612 116.295 51.612C115.671 51.612 115.179 51.796 114.819 52.164C114.459 52.524 114.279 53.044 114.279 53.724V57H113.127V50.64H114.231V51.6C114.463 51.272 114.775 51.02 115.167 50.844C115.567 50.668 116.019 50.58 116.523 50.58ZM124.054 57.072C123.422 57.072 122.854 56.932 122.35 56.652C121.846 56.372 121.45 55.988 121.162 55.5C120.882 55.004 120.742 54.444 120.742 53.82C120.742 53.196 120.882 52.64 121.162 52.152C121.45 51.656 121.846 51.272 122.35 51C122.854 50.72 123.422 50.58 124.054 50.58C124.686 50.58 125.25 50.72 125.746 51C126.25 51.272 126.642 51.656 126.922 52.152C127.21 52.64 127.354 53.196 127.354 53.82C127.354 54.444 127.21 55.004 126.922 55.5C126.642 55.988 126.25 56.372 125.746 56.652C125.25 56.932 124.686 57.072 124.054 57.072ZM124.054 56.064C124.462 56.064 124.826 55.972 125.146 55.788C125.474 55.596 125.73 55.332 125.914 54.996C126.098 54.652 126.19 54.26 126.19 53.82C126.19 53.38 126.098 52.992 125.914 52.656C125.73 52.312 125.474 52.048 125.146 51.864C124.826 51.68 124.462 51.588 124.054 51.588C123.646 51.588 123.278 51.68 122.95 51.864C122.63 52.048 122.374 52.312 122.182 52.656C121.998 52.992 121.906 53.38 121.906 53.82C121.906 54.26 121.998 54.652 122.182 54.996C122.374 55.332 122.63 55.596 122.95 55.788C123.278 55.972 123.646 56.064 124.054 56.064ZM132.523 56.628C132.355 56.772 132.147 56.884 131.899 56.964C131.651 57.036 131.395 57.072 131.131 57.072C130.491 57.072 129.995 56.9 129.643 56.556C129.291 56.212 129.115 55.72 129.115 55.08V51.588H128.035V50.64H129.115V49.248H130.267V50.64H132.091V51.588H130.267V55.032C130.267 55.376 130.351 55.64 130.519 55.824C130.695 56.008 130.943 56.1 131.263 56.1C131.615 56.1 131.915 56 132.163 55.8L132.523 56.628ZM139.453 53.856C139.453 53.944 139.445 54.06 139.429 54.204H134.269C134.341 54.764 134.585 55.216 135.001 55.56C135.425 55.896 135.949 56.064 136.573 56.064C137.333 56.064 137.945 55.808 138.409 55.296L139.045 56.04C138.757 56.376 138.397 56.632 137.965 56.808C137.541 56.984 137.065 57.072 136.537 57.072C135.865 57.072 135.269 56.936 134.749 56.664C134.229 56.384 133.825 55.996 133.537 55.5C133.257 55.004 133.117 54.444 133.117 53.82C133.117 53.204 133.253 52.648 133.525 52.152C133.805 51.656 134.185 51.272 134.665 51C135.153 50.72 135.701 50.58 136.309 50.58C136.917 50.58 137.457 50.72 137.929 51C138.409 51.272 138.781 51.656 139.045 52.152C139.317 52.648 139.453 53.216 139.453 53.856ZM136.309 51.552C135.757 51.552 135.293 51.72 134.917 52.056C134.549 52.392 134.333 52.832 134.269 53.376H138.349C138.285 52.84 138.065 52.404 137.689 52.068C137.321 51.724 136.861 51.552 136.309 51.552ZM142.877 57.072C142.357 57.072 141.857 57.004 141.377 56.868C140.897 56.724 140.521 56.544 140.249 56.328L140.729 55.416C141.009 55.616 141.349 55.776 141.749 55.896C142.149 56.016 142.553 56.076 142.961 56.076C143.969 56.076 144.473 55.788 144.473 55.212C144.473 55.02 144.405 54.868 144.269 54.756C144.133 54.644 143.961 54.564 143.753 54.516C143.553 54.46 143.265 54.4 142.889 54.336C142.377 54.256 141.957 54.164 141.629 54.06C141.309 53.956 141.033 53.78 140.801 53.532C140.569 53.284 140.453 52.936 140.453 52.488C140.453 51.912 140.693 51.452 141.173 51.108C141.653 50.756 142.297 50.58 143.105 50.58C143.529 50.58 143.953 50.632 144.377 50.736C144.801 50.84 145.149 50.98 145.421 51.156L144.929 52.068C144.409 51.732 143.797 51.564 143.093 51.564C142.605 51.564 142.233 51.644 141.977 51.804C141.721 51.964 141.593 52.176 141.593 52.44C141.593 52.648 141.665 52.812 141.809 52.932C141.953 53.052 142.129 53.14 142.337 53.196C142.553 53.252 142.853 53.316 143.237 53.388C143.749 53.476 144.161 53.572 144.473 53.676C144.793 53.772 145.065 53.94 145.289 54.18C145.513 54.42 145.625 54.756 145.625 55.188C145.625 55.764 145.377 56.224 144.881 56.568C144.393 56.904 143.725 57.072 142.877 57.072Z" fill="black"/>
<path d="M203.884 54.936H202.288V57H201.124V54.936H196.456V54.096L200.752 48.6H202.048L197.932 53.904H201.16V52.08H202.288V53.904H203.884V54.936ZM205.63 57.072C205.406 57.072 205.214 56.996 205.054 56.844C204.894 56.684 204.814 56.484 204.814 56.244C204.814 56.012 204.894 55.82 205.054 55.668C205.214 55.508 205.406 55.428 205.63 55.428C205.854 55.428 206.042 55.504 206.194 55.656C206.346 55.808 206.422 56.004 206.422 56.244C206.422 56.484 206.342 56.684 206.182 56.844C206.03 56.996 205.846 57.072 205.63 57.072ZM209.956 51.948C211.156 51.948 212.036 52.176 212.596 52.632C213.164 53.08 213.448 53.696 213.448 54.48C213.448 54.976 213.328 55.424 213.088 55.824C212.856 56.216 212.5 56.528 212.02 56.76C211.548 56.984 210.964 57.096 210.268 57.096C209.676 57.096 209.104 57.008 208.552 56.832C208 56.648 207.544 56.396 207.184 56.076L207.736 55.128C208.024 55.4 208.392 55.62 208.84 55.788C209.288 55.948 209.76 56.028 210.256 56.028C210.888 56.028 211.376 55.896 211.72 55.632C212.072 55.36 212.248 54.992 212.248 54.528C212.248 54.024 212.056 53.644 211.672 53.388C211.288 53.124 210.632 52.992 209.704 52.992H207.796L208.24 48.6H212.98V49.644H209.248L209.02 51.948H209.956ZM217.495 46.896H218.539L214.579 58.2H213.535L217.495 46.896ZM221.066 51.948C222.266 51.948 223.146 52.176 223.706 52.632C224.274 53.08 224.558 53.696 224.558 54.48C224.558 54.976 224.438 55.424 224.198 55.824C223.966 56.216 223.61 56.528 223.13 56.76C222.658 56.984 222.074 57.096 221.378 57.096C220.786 57.096 220.214 57.008 219.662 56.832C219.11 56.648 218.654 56.396 218.294 56.076L218.846 55.128C219.134 55.4 219.502 55.62 219.95 55.788C220.398 55.948 220.87 56.028 221.366 56.028C221.998 56.028 222.486 55.896 222.83 55.632C223.182 55.36 223.358 54.992 223.358 54.528C223.358 54.024 223.166 53.644 222.782 53.388C222.398 53.124 221.742 52.992 220.814 52.992H218.906L219.35 48.6H224.09V49.644H220.358L220.13 51.948H221.066ZM231.119 57.072C230.599 57.072 230.099 57.004 229.619 56.868C229.139 56.724 228.763 56.544 228.491 56.328L228.971 55.416C229.251 55.616 229.591 55.776 229.991 55.896C230.391 56.016 230.795 56.076 231.203 56.076C232.211 56.076 232.715 55.788 232.715 55.212C232.715 55.02 232.647 54.868 232.511 54.756C232.375 54.644 232.203 54.564 231.995 54.516C231.795 54.46 231.507 54.4 231.131 54.336C230.619 54.256 230.199 54.164 229.871 54.06C229.551 53.956 229.275 53.78 229.043 53.532C228.811 53.284 228.695 52.936 228.695 52.488C228.695 51.912 228.935 51.452 229.415 51.108C229.895 50.756 230.539 50.58 231.347 50.58C231.771 50.58 232.195 50.632 232.619 50.736C233.043 50.84 233.391 50.98 233.663 51.156L233.171 52.068C232.651 51.732 232.039 51.564 231.335 51.564C230.847 51.564 230.475 51.644 230.219 51.804C229.963 51.964 229.835 52.176 229.835 52.44C229.835 52.648 229.907 52.812 230.051 52.932C230.195 53.052 230.371 53.14 230.579 53.196C230.795 53.252 231.095 53.316 231.479 53.388C231.991 53.476 232.403 53.572 232.715 53.676C233.035 53.772 233.307 53.94 233.531 54.18C233.755 54.42 233.867 54.756 233.867 55.188C233.867 55.764 233.619 56.224 233.123 56.568C232.635 56.904 231.967 57.072 231.119 57.072ZM241.235 50.64V57H240.143V56.04C239.911 56.368 239.603 56.624 239.219 56.808C238.843 56.984 238.431 57.072 237.983 57.072C237.135 57.072 236.467 56.84 235.979 56.376C235.491 55.904 235.247 55.212 235.247 54.3V50.64H236.399V54.168C236.399 54.784 236.547 55.252 236.843 55.572C237.139 55.884 237.563 56.04 238.115 56.04C238.723 56.04 239.203 55.856 239.555 55.488C239.907 55.12 240.083 54.6 240.083 53.928V50.64H241.235ZM244.532 51.708C244.732 51.34 245.028 51.06 245.42 50.868C245.812 50.676 246.288 50.58 246.848 50.58V51.696C246.784 51.688 246.696 51.684 246.584 51.684C245.96 51.684 245.468 51.872 245.108 52.248C244.756 52.616 244.58 53.144 244.58 53.832V57H243.428V50.64H244.532V51.708ZM256.66 53.28H254.476V55.428H253.468V53.28H251.284V52.332H253.468V50.172H254.476V52.332H256.66V53.28ZM265.431 54.936H263.835V57H262.671V54.936H258.003V54.096L262.299 48.6H263.595L259.479 53.904H262.707V52.08H263.835V53.904H265.431V54.936ZM269.582 57.096C268.918 57.096 268.326 56.928 267.806 56.592C267.294 56.248 266.89 55.752 266.594 55.104C266.298 54.456 266.15 53.688 266.15 52.8C266.15 51.912 266.298 51.144 266.594 50.496C266.89 49.848 267.294 49.356 267.806 49.02C268.326 48.676 268.918 48.504 269.582 48.504C270.238 48.504 270.822 48.676 271.334 49.02C271.854 49.356 272.262 49.848 272.558 50.496C272.854 51.144 273.002 51.912 273.002 52.8C273.002 53.688 272.854 54.456 272.558 55.104C272.262 55.752 271.854 56.248 271.334 56.592C270.822 56.928 270.238 57.096 269.582 57.096ZM269.582 56.028C270.254 56.028 270.79 55.752 271.19 55.2C271.598 54.648 271.802 53.848 271.802 52.8C271.802 51.752 271.598 50.952 271.19 50.4C270.79 49.848 270.254 49.572 269.582 49.572C268.902 49.572 268.358 49.848 267.95 50.4C267.55 50.952 267.35 51.752 267.35 52.8C267.35 53.848 267.55 54.648 267.95 55.2C268.358 55.752 268.902 56.028 269.582 56.028ZM280.809 57.096C280.145 57.096 279.553 56.928 279.033 56.592C278.521 56.248 278.117 55.752 277.821 55.104C277.525 54.456 277.377 53.688 277.377 52.8C277.377 51.912 277.525 51.144 277.821 50.496C278.117 49.848 278.521 49.356 279.033 49.02C279.553 48.676 280.145 48.504 280.809 48.504C281.465 48.504 282.049 48.676 282.561 49.02C283.081 49.356 283.489 49.848 283.785 50.496C284.081 51.144 284.229 51.912 284.229 52.8C284.229 53.688 284.081 54.456 283.785 55.104C283.489 55.752 283.081 56.248 282.561 56.592C282.049 56.928 281.465 57.096 280.809 57.096ZM280.809 56.028C281.481 56.028 282.017 55.752 282.417 55.2C282.825 54.648 283.029 53.848 283.029 52.8C283.029 51.752 282.825 50.952 282.417 50.4C282.017 49.848 281.481 49.572 280.809 49.572C280.129 49.572 279.585 49.848 279.177 50.4C278.777 50.952 278.577 51.752 278.577 52.8C278.577 53.848 278.777 54.648 279.177 55.2C279.585 55.752 280.129 56.028 280.809 56.028ZM288.813 57.096C288.149 57.096 287.557 56.928 287.037 56.592C286.525 56.248 286.121 55.752 285.825 55.104C285.529 54.456 285.381 53.688 285.381 52.8C285.381 51.912 285.529 51.144 285.825 50.496C286.121 49.848 286.525 49.356 287.037 49.02C287.557 48.676 288.149 48.504 288.813 48.504C289.469 48.504 290.053 48.676 290.565 49.02C291.085 49.356 291.493 49.848 291.789 50.496C292.085 51.144 292.233 51.912 292.233 52.8C292.233 53.688 292.085 54.456 291.789 55.104C291.493 55.752 291.085 56.248 290.565 56.592C290.053 56.928 289.469 57.096 288.813 57.096ZM288.813 56.028C289.485 56.028 290.021 55.752 290.421 55.2C290.829 54.648 291.033 53.848 291.033 52.8C291.033 51.752 290.829 50.952 290.421 50.4C290.021 49.848 289.485 49.572 288.813 49.572C288.133 49.572 287.589 49.848 287.181 50.4C286.781 50.952 286.581 51.752 286.581 52.8C286.581 53.848 286.781 54.648 287.181 55.2C287.589 55.752 288.133 56.028 288.813 56.028ZM296.817 57.096C296.153 57.096 295.561 56.928 295.041 56.592C294.529 56.248 294.125 55.752 293.829 55.104C293.533 54.456 293.385 53.688 293.385 52.8C293.385 51.912 293.533 51.144 293.829 50.496C294.125 49.848 294.529 49.356 295.041 49.02C295.561 48.676 296.153 48.504 296.817 48.504C297.473 48.504 298.057 48.676 298.569 49.02C299.089 49.356 299.497 49.848 299.793 50.496C300.089 51.144 300.237 51.912 300.237 52.8C300.237 53.688 300.089 54.456 299.793 55.104C299.497 55.752 299.089 56.248 298.569 56.592C298.057 56.928 297.473 57.096 296.817 57.096ZM296.817 56.028C297.489 56.028 298.025 55.752 298.425 55.2C298.833 54.648 299.037 53.848 299.037 52.8C299.037 51.752 298.833 50.952 298.425 50.4C298.025 49.848 297.489 49.572 296.817 49.572C296.137 49.572 295.593 49.848 295.185 50.4C294.785 50.952 294.585 51.752 294.585 52.8C294.585 53.848 294.785 54.648 295.185 55.2C295.593 55.752 296.137 56.028 296.817 56.028ZM308.523 50.58C309.331 50.58 309.971 50.816 310.443 51.288C310.923 51.752 311.163 52.436 311.163 53.34V57H310.011V53.472C310.011 52.856 309.863 52.392 309.567 52.08C309.271 51.768 308.847 51.612 308.295 51.612C307.671 51.612 307.179 51.796 306.819 52.164C306.459 52.524 306.279 53.044 306.279 53.724V57H305.127V50.64H306.231V51.6C306.463 51.272 306.775 51.02 307.167 50.844C307.567 50.668 308.019 50.58 308.523 50.58ZM316.054 57.072C315.422 57.072 314.854 56.932 314.35 56.652C313.846 56.372 313.45 55.988 313.162 55.5C312.882 55.004 312.742 54.444 312.742 53.82C312.742 53.196 312.882 52.64 313.162 52.152C313.45 51.656 313.846 51.272 314.35 51C314.854 50.72 315.422 50.58 316.054 50.58C316.686 50.58 317.25 50.72 317.746 51C318.25 51.272 318.642 51.656 318.922 52.152C319.21 52.64 319.354 53.196 319.354 53.82C319.354 54.444 319.21 55.004 318.922 55.5C318.642 55.988 318.25 56.372 317.746 56.652C317.25 56.932 316.686 57.072 316.054 57.072ZM316.054 56.064C316.462 56.064 316.826 55.972 317.146 55.788C317.474 55.596 317.73 55.332 317.914 54.996C318.098 54.652 318.19 54.26 318.19 53.82C318.19 53.38 318.098 52.992 317.914 52.656C317.73 52.312 317.474 52.048 317.146 51.864C316.826 51.68 316.462 51.588 316.054 51.588C315.646 51.588 315.278 51.68 314.95 51.864C314.63 52.048 314.374 52.312 314.182 52.656C313.998 52.992 313.906 53.38 313.906 53.82C313.906 54.26 313.998 54.652 314.182 54.996C314.374 55.332 314.63 55.596 314.95 55.788C315.278 55.972 315.646 56.064 316.054 56.064ZM324.523 56.628C324.355 56.772 324.147 56.884 323.899 56.964C323.651 57.036 323.395 57.072 323.131 57.072C322.491 57.072 321.995 56.9 321.643 56.556C321.291 56.212 321.115 55.72 321.115 55.08V51.588H320.035V50.64H321.115V49.248H322.267V50.64H324.091V51.588H322.267V55.032C322.267 55.376 322.351 55.64 322.519 55.824C322.695 56.008 322.943 56.1 323.263 56.1C323.615 56.1 323.915 56 324.163 55.8L324.523 56.628ZM331.453 53.856C331.453 53.944 331.445 54.06 331.429 54.204H326.269C326.341 54.764 326.585 55.216 327.001 55.56C327.425 55.896 327.949 56.064 328.573 56.064C329.333 56.064 329.945 55.808 330.409 55.296L331.045 56.04C330.757 56.376 330.397 56.632 329.965 56.808C329.541 56.984 329.065 57.072 328.537 57.072C327.865 57.072 327.269 56.936 326.749 56.664C326.229 56.384 325.825 55.996 325.537 55.5C325.257 55.004 325.117 54.444 325.117 53.82C325.117 53.204 325.253 52.648 325.525 52.152C325.805 51.656 326.185 51.272 326.665 51C327.153 50.72 327.701 50.58 328.309 50.58C328.917 50.58 329.457 50.72 329.929 51C330.409 51.272 330.781 51.656 331.045 52.152C331.317 52.648 331.453 53.216 331.453 53.856ZM328.309 51.552C327.757 51.552 327.293 51.72 326.917 52.056C326.549 52.392 326.333 52.832 326.269 53.376H330.349C330.285 52.84 330.065 52.404 329.689 52.068C329.321 51.724 328.861 51.552 328.309 51.552ZM334.877 57.072C334.357 57.072 333.857 57.004 333.377 56.868C332.897 56.724 332.521 56.544 332.249 56.328L332.729 55.416C333.009 55.616 333.349 55.776 333.749 55.896C334.149 56.016 334.553 56.076 334.961 56.076C335.969 56.076 336.473 55.788 336.473 55.212C336.473 55.02 336.405 54.868 336.269 54.756C336.133 54.644 335.961 54.564 335.753 54.516C335.553 54.46 335.265 54.4 334.889 54.336C334.377 54.256 333.957 54.164 333.629 54.06C333.309 53.956 333.033 53.78 332.801 53.532C332.569 53.284 332.453 52.936 332.453 52.488C332.453 51.912 332.693 51.452 333.173 51.108C333.653 50.756 334.297 50.58 335.105 50.58C335.529 50.58 335.953 50.632 336.377 50.736C336.801 50.84 337.149 50.98 337.421 51.156L336.929 52.068C336.409 51.732 335.797 51.564 335.093 51.564C334.605 51.564 334.233 51.644 333.977 51.804C333.721 51.964 333.593 52.176 333.593 52.44C333.593 52.648 333.665 52.812 333.809 52.932C333.953 53.052 334.129 53.14 334.337 53.196C334.553 53.252 334.853 53.316 335.237 53.388C335.749 53.476 336.161 53.572 336.473 53.676C336.793 53.772 337.065 53.94 337.289 54.18C337.513 54.42 337.625 54.756 337.625 55.188C337.625 55.764 337.377 56.224 336.881 56.568C336.393 56.904 335.725 57.072 334.877 57.072Z" fill="black"/>
<defs>
<clipPath id="clip0_160_1146">
<rect width="33" height="33" fill="white" transform="translate(190)"/>
</clipPath>
</defs>
</svg>
